<svg width="643" height="643" viewBox="0 0 643 643" fill="none" xmlns="http://www.w3.org/2000/svg">
<mask id="mask0" mask-type="alpha" maskUnits="userSpaceOnUse" x="0" y="0" width="643" height="643">
<path d="M643 0H0V643H643V0Z" fill="white"/>
</mask>
<g mask="url(#mask0)">
<path d="M643 0H0V643H643V0Z" fill="white"/>
<path d="M643 321H0V643H643V321Z" fill="#2E9628"/>
<path d="M194.494 212.284C172.993 215.705 118.505 221.08 97.2456 217.416L101.4 227.922C136.585 224.501 170.304 236.474 201.581 224.013L194.494 212.284Z" fill="#D0021B" stroke="black" stroke-width="1.8"/>
<path d="M111.174 237.939C97.734 233.787 75.4995 209.597 71.8352 194.936C82.3413 202.509 107.508 212.284 116.549 211.307C113.617 213.506 106.286 219.369 100.666 220.103C103.356 225.479 108.485 232.32 111.174 237.939Z" fill="#D0021B" stroke="black" stroke-width="1.8"/>
<path d="M154.421 230.609C158.332 236.229 178.856 233.907 189.24 227.067L186.43 222.302L184.353 226.334L181.055 222.547L180.201 228.532L174.458 224.134L173.48 229.389L169.815 224.746L168.473 230.488L163.096 226.088L161.02 232.076C159.387 230.026 158.484 227.489 158.453 224.868C156.377 225.722 154.666 228.532 154.421 230.609Z" fill="#D0021B" stroke="black" stroke-width="1.8"/>
<path d="M156.132 212.406C156.132 213.872 157.842 218.149 161.02 219.369C161.142 217.538 158.942 213.261 160.286 211.43L163.096 214.117L163.952 208.985L167.739 211.795L168.105 205.81L172.014 208.497V201.9C165.661 202.509 157.842 210.207 156.132 212.406Z" fill="#D0021B" stroke="black" stroke-width="1.8"/>
<path d="M552.638 278.989C550.989 275.08 545.857 270.316 541.337 267.383C543.101 263.045 545.853 256.18 548.602 249.072C541.76 250.539 527.532 251.623 519.223 250.646C534.861 235.009 567.603 202.754 578.355 188.094C574.445 208.129 577.378 253.088 585.196 268.726C576.888 265.305 567.285 258.222 561.911 250.403C558.741 261.628 554.852 273.859 552.699 278.866" fill="#D0021B"/>
<path d="M552.638 278.989C550.989 275.08 545.857 270.316 541.337 267.383C543.101 263.045 545.853 256.18 548.602 249.072C541.76 250.539 527.532 251.623 519.223 250.646C534.861 235.009 567.603 202.754 578.355 188.094C574.445 208.129 577.378 253.088 585.196 268.726C576.888 265.305 567.285 258.222 561.911 250.403C558.741 261.628 554.852 273.859 552.699 278.866" stroke="black" stroke-width="1.8"/>
<path d="M247.517 193.225C248.494 198.357 248.737 202.266 252.403 203.732C256.067 205.199 264.131 208.13 269.262 216.927C263.154 215.217 254.602 212.773 253.868 218.638C253.171 224.219 255.619 224.054 259.733 224.989C265.108 226.211 270.24 232.808 270.485 241.606C266.085 238.918 259.977 236.719 256.067 236.719C252.158 236.719 251.058 237.451 250.081 242.337C248.469 250.398 251.426 250.89 255.09 251.378C258.756 251.867 266.575 255.532 267.064 268.971C262.909 265.305 254.577 263.263 249.47 262.375C246.66 261.886 246.172 263.351 245.806 268.483C245.438 273.614 246.05 275.325 250.936 276.79C255.824 278.257 261.444 281.922 262.909 289.741C258.266 287.541 250.936 288.275 248.737 289.252C246.538 290.229 245.347 295.69 249.99 306.196C259.957 302.818 270.275 300.576 280.746 299.513C303.84 297.082 298.339 280.945 298.339 255.532C298.339 230.12 349.161 201.778 426.374 156.819C407.804 204.22 433.216 199.822 447.387 194.448C461.559 189.071 494.79 175.389 520.69 164.149C485.015 188.094 466.934 213.506 498.211 224.746C458.138 237.451 439.568 272.147 461.559 294.138C446.563 288.827 425.781 298.848 417.077 312.804C432.714 311.337 463.024 315.152 481.594 320.527C499.278 325.645 528.469 319.652 531.219 303.882C531.365 303.086 531.439 302.278 531.441 301.468C531.441 295.971 530.093 291.82 528.028 288.796C523.487 282.14 515.528 280.7 511.161 280.7C504.808 280.7 498.211 283.387 498.211 288.03C498.211 292.673 502.12 294.627 509.939 294.627C514.214 294.627 520.805 295.37 528.028 288.796C530.093 291.82 531.441 295.971 531.441 301.469C531.435 302.267 531.358 303.063 531.21 303.848C524.428 307.709 516.764 309.751 508.96 309.776C493.322 309.776 478.664 303.423 478.664 286.319C478.664 269.216 496.255 259.442 510.427 259.442C529.974 259.442 557.34 267.261 557.34 298.536C557.34 338.121 505.439 356.633 474.651 356.633C479.813 360.964 485.626 364.998 491.857 367.44C513.663 375.993 532.907 386.499 539.749 402.626C531.441 402.626 517.758 395.785 511.404 388.943C528.998 410.445 507.659 449.999 509.939 463.223C512.381 477.394 528.998 468.598 528.998 479.594C528.998 489.367 519.223 487.656 515.559 483.259C511.892 478.861 500.143 475.166 494.056 479.594C488.681 483.504 480.374 485.458 476.708 481.548C473.044 477.639 459.605 479.104 453.985 484.481C448.365 489.855 440.516 490.275 438.103 486.191C435.519 481.818 436.179 476.501 446.632 474.66C441.989 469.772 427.84 478.127 425.397 468.843C423.641 462.172 427.351 459.069 439.568 460.045C438.346 456.87 429.307 455.404 430.527 448.806C431.749 442.209 438.811 438.125 447.143 447.829C469.377 473.729 479.64 459.314 487.214 448.074C484.772 442.209 487.459 438.3 492.102 434.635C489.658 430.481 491.124 424.618 492.834 420.708C489.17 418.509 486.971 408.735 490.88 405.314C487.703 405.314 482.816 401.648 482.816 395.296C478.478 398.083 472.784 397.473 469.134 393.831C464.491 396.518 452.275 397.007 446.898 391.142C439.568 394.074 426.617 393.34 423.199 387.721C416.747 389.433 404.872 383.811 402.429 377.703C398.641 377.41 394.974 376.239 391.716 374.284C381.944 381.614 368.71 395.785 381.904 406.536C395.099 417.287 422.465 408.489 422.953 435.367C416.6 429.992 404.872 431.457 400.962 426.083C387.769 445.63 368.71 463.466 340.61 470.797C344.763 473.484 352.339 473.729 355.27 473.484C361.363 472.977 366.509 478.127 361.868 484.235C357.225 490.346 347.696 485.213 342.076 480.083C333.989 472.697 328.637 476.905 326.438 478.616C324.239 480.326 321.307 481.305 317.398 477.394C313.488 473.484 309.822 476.174 307.868 478.616C304.692 482.586 297.362 473.484 285.634 484.235C279.995 489.405 266.575 482.77 271.95 475.194C266.33 476.662 256.391 468.498 264.62 460.536C272.195 453.206 286.611 470.065 298.339 465.177C295.703 461.823 290.21 455.609 278.792 454.182C272.927 453.449 271.889 446.628 274.637 441.72C278.058 435.612 288.566 439.767 295.652 449.296C301.233 456.803 308.602 456.87 316.175 455.404C321.497 451.857 329.737 451.738 333.403 452.96C333.403 449.296 339.143 446.118 343.541 446.118C343.298 441.232 344.763 436.834 351.85 435.612C352.44 435.511 353.051 435.411 353.682 435.352C348.692 435.565 343.878 433.492 340.603 429.722C330.815 432.229 319.972 427.397 318.378 418.155C302.907 417.023 301.369 400.632 305.181 395.296C305.49 394.857 305.839 394.447 306.223 394.072C301.618 397.708 295.734 399.389 288.457 396.742C282.05 405.718 270.818 410.982 258.617 407.423C255.622 412.245 250.927 415.768 245.46 417.295C245.915 423.217 244.699 429.927 237.254 437.811C239.207 427.06 225.525 423.639 228.458 406.048C227.479 418.753 190.584 439.767 184.719 467.621C190.096 470.065 195.961 471.774 199.625 471.042C208.842 469.199 211.842 478.861 209.154 482.77C206.467 486.68 198.891 488.633 195.716 485.213C192.54 481.793 185.941 486.435 182.765 480.083C179.59 473.729 170.792 475.928 167.128 480.083C163.463 484.235 151.245 474.706 142.449 484.235C139.158 487.8 128.034 491.566 121.435 489.612C114.838 487.656 110.929 480.815 113.128 477.15C108.73 472.996 108.669 467.908 112.885 463.466C111.295 457.235 116.476 444.923 125.224 449.784C130.721 452.838 150.207 467.255 167.189 450.761C181.913 436.283 173.336 424.681 182.765 423.151C181.618 417.272 185.21 409.957 189.119 408.489C187.981 406.036 187.776 403.251 188.542 400.658C186.316 400.476 184.129 399.973 182.047 399.163C174.742 401.338 167.173 402.503 159.552 402.626C159.552 408.489 152.712 422.662 146.847 429.504C144.893 375.749 96.0248 370.372 89.4262 327.614C89.183 333.966 82.5845 340.319 81.8525 345.694C81.119 351.07 77.943 355.223 72.078 352.781C66.215 350.337 64.7479 340.074 70.6128 338.609C76.4778 337.142 75.3783 327.369 79.0426 326.147C82.7069 324.925 83.318 321.016 81.8525 316.129C80.3854 311.243 82.5845 305.378 84.0516 301.714C85.5167 298.048 83.318 291.939 78.1866 289.741C73.5202 287.858 71.2638 282.548 73.1469 277.882C73.1955 277.761 73.2466 277.642 73.3003 277.524C67.9253 273.614 69.4579 265.165 76.721 263.597C85.7619 261.641 85.5167 276.545 90.6481 278.257C89.9165 275.325 90.8933 269.705 93.0924 266.039C90.1597 259.685 93.826 254.556 99.689 254.556C109.952 254.556 106.531 271.659 104.087 277.035C107.508 272.147 112.885 266.527 117.037 270.439C121.192 274.346 120.514 282.512 116.06 286.074C112.394 289.007 104.82 293.65 107.02 298.781C111.417 306.6 114.105 315.884 114.595 327.858C120.703 332.501 124.613 337.875 124.613 342.273C128.643 342.518 136.364 345.863 137.44 350.582C142.326 350.092 149.624 351.073 151.733 355.591C153.323 354.735 157.562 354.45 160.129 354.693C160.127 350.904 161.386 347.223 163.707 344.229C155.4 334.943 155.643 320.284 164.195 314.419C161.76 308.332 162.73 297.071 170.792 291.206C170.618 285.096 172.259 277.035 180.321 271.904C179.099 265.305 183.254 256.266 188.385 255.778C187.163 249.424 188.086 241.583 195.171 237.916C193.492 236.042 192.629 233.574 192.775 231.061C180.346 233.748 175.489 241.355 171.525 248.448C171.037 245.515 170.303 241.606 168.593 238.673C168.593 246.247 162.973 248.936 162.73 259.442C158.575 255.044 157.11 247.957 157.353 243.071C157.548 239.16 151.002 235.497 152.955 228.655C162.73 237.696 182.522 217.904 199.625 224.258C182.765 188.828 170.549 205.931 161.996 212.041C153.444 218.149 147.335 209.108 148.314 203.243C136.829 200.556 123.145 201.044 108.242 203.977C119.236 189.559 145.137 183.208 164.195 184.673C172.502 169.281 182.522 171.48 192.294 172.945C198.684 173.905 206.147 173.926 213.552 173.552C218.195 160.602 245.316 159.263 248.005 149C250.449 150.954 248.964 158.307 246.521 164.659C253.585 162.544 259.651 160.286 261.687 155.842C262.909 159.995 260.955 171.234 258.266 174.656C261.046 173.876 263.934 173.546 266.818 173.678C258.266 178.565 247.517 185.895 245.806 187.117C244.095 188.339 243.117 190.781 247.517 193.225C242.628 194.203 228.946 199.091 223.327 195.181" fill="#D0021B"/>
<path d="M247.517 193.225C248.494 198.357 248.737 202.266 252.403 203.732C256.067 205.199 264.131 208.13 269.262 216.927C263.154 215.217 254.602 212.773 253.868 218.638C253.171 224.219 255.619 224.054 259.733 224.989C265.108 226.211 270.24 232.808 270.485 241.606C266.085 238.918 259.977 236.719 256.067 236.719C252.158 236.719 251.058 237.451 250.081 242.337C248.469 250.398 251.426 250.89 255.09 251.378C258.756 251.867 266.575 255.532 267.064 268.971C262.909 265.305 254.577 263.263 249.47 262.375C246.66 261.886 246.172 263.351 245.806 268.483C245.438 273.614 246.05 275.325 250.936 276.79C255.824 278.257 261.444 281.922 262.909 289.741C258.266 287.541 250.936 288.275 248.737 289.252C246.538 290.229 245.347 295.69 249.99 306.196C259.957 302.818 270.275 300.576 280.746 299.513C303.84 297.082 298.339 280.945 298.339 255.532C298.339 230.12 349.161 201.778 426.374 156.819C407.804 204.22 433.216 199.822 447.387 194.448C461.559 189.071 494.79 175.389 520.69 164.149C485.015 188.094 466.934 213.506 498.211 224.746C458.138 237.451 439.568 272.147 461.559 294.138C446.563 288.827 425.781 298.848 417.077 312.804C432.714 311.337 463.024 315.152 481.594 320.527C499.278 325.645 528.469 319.652 531.219 303.882C531.365 303.086 531.439 302.278 531.441 301.468C531.441 295.971 530.093 291.82 528.028 288.796C523.487 282.14 515.528 280.7 511.161 280.7C504.808 280.7 498.211 283.387 498.211 288.03C498.211 292.673 502.12 294.627 509.939 294.627C514.214 294.627 520.805 295.37 528.028 288.796C530.093 291.82 531.441 295.971 531.441 301.469C531.435 302.267 531.358 303.063 531.21 303.848C524.428 307.709 516.764 309.751 508.96 309.776C493.322 309.776 478.664 303.423 478.664 286.319C478.664 269.216 496.255 259.442 510.427 259.442C529.974 259.442 557.34 267.261 557.34 298.536C557.34 338.121 505.439 356.633 474.651 356.633C479.813 360.964 485.626 364.998 491.857 367.44C513.662 375.993 532.907 386.499 539.749 402.626C531.441 402.626 517.758 395.785 511.404 388.943C528.998 410.445 507.659 449.999 509.939 463.223C512.381 477.394 528.998 468.598 528.998 479.594C528.998 489.367 519.223 487.656 515.559 483.259C511.892 478.861 500.143 475.166 494.056 479.594C488.681 483.504 480.374 485.458 476.708 481.548C473.044 477.639 459.605 479.104 453.985 484.481C448.365 489.855 440.516 490.275 438.102 486.191C435.519 481.818 436.179 476.501 446.632 474.66C441.989 469.772 427.84 478.127 425.397 468.843C423.641 462.172 427.351 459.069 439.568 460.045C438.346 456.87 429.307 455.404 430.527 448.806C431.749 442.209 438.811 438.125 447.143 447.829C469.377 473.729 479.64 459.314 487.214 448.074C484.772 442.209 487.459 438.3 492.102 434.635C489.658 430.481 491.124 424.618 492.834 420.708C489.17 418.509 486.971 408.735 490.88 405.314C487.703 405.314 482.816 401.648 482.816 395.296C478.478 398.083 472.784 397.473 469.134 393.831C464.491 396.518 452.275 397.007 446.898 391.142C439.568 394.074 426.617 393.34 423.199 387.721C416.747 389.433 404.872 383.811 402.429 377.703C398.641 377.41 394.974 376.239 391.716 374.284C381.944 381.614 368.71 395.785 381.904 406.536C395.099 417.287 422.465 408.489 422.953 435.367C416.6 429.992 404.872 431.457 400.962 426.083C387.769 445.63 368.71 463.466 340.61 470.797C344.763 473.484 352.339 473.729 355.27 473.484C361.363 472.976 366.509 478.127 361.868 484.235C357.225 490.346 347.696 485.213 342.076 480.083C333.989 472.697 328.637 476.905 326.438 478.616C324.239 480.326 321.307 481.305 317.398 477.394C313.488 473.484 309.822 476.174 307.868 478.616C304.692 482.586 297.362 473.484 285.634 484.235C279.995 489.405 266.575 482.77 271.95 475.194C266.33 476.662 256.391 468.498 264.62 460.536C272.195 453.206 286.611 470.065 298.339 465.177C295.703 461.823 290.21 455.609 278.792 454.182C272.927 453.449 271.889 446.628 274.637 441.72C278.058 435.612 288.566 439.767 295.652 449.296C301.233 456.803 308.602 456.87 316.175 455.404C321.497 451.857 329.737 451.738 333.403 452.96C333.403 449.296 339.143 446.118 343.541 446.118C343.298 441.232 344.763 436.834 351.85 435.612C352.44 435.511 353.051 435.411 353.682 435.352C348.692 435.565 343.878 433.492 340.603 429.722C330.815 432.229 319.972 427.397 318.378 418.155C302.907 417.023 301.369 400.632 305.181 395.296C305.49 394.857 305.839 394.447 306.223 394.072C301.618 397.708 295.734 399.389 288.457 396.742C282.05 405.718 270.818 410.982 258.617 407.423C255.622 412.245 250.927 415.768 245.46 417.295C245.915 423.217 244.699 429.927 237.254 437.811C239.207 427.06 225.525 423.639 228.458 406.048C227.479 418.753 190.584 439.767 184.719 467.621C190.096 470.065 195.961 471.774 199.625 471.042C208.842 469.199 211.842 478.861 209.154 482.77C206.467 486.68 198.891 488.633 195.716 485.213C192.54 481.793 185.941 486.435 182.765 480.083C179.59 473.729 170.792 475.928 167.128 480.083C163.463 484.235 151.245 474.706 142.449 484.235C139.158 487.8 128.034 491.566 121.435 489.612C114.838 487.656 110.929 480.815 113.128 477.15C108.73 472.996 108.669 467.908 112.885 463.466C111.295 457.235 116.476 444.923 125.224 449.784C130.721 452.838 150.207 467.255 167.189 450.761C181.913 436.283 173.336 424.681 182.765 423.151C181.618 417.272 185.21 409.957 189.119 408.489C187.981 406.036 187.776 403.251 188.542 400.658C186.316 400.476 184.129 399.973 182.047 399.163C174.742 401.338 167.173 402.503 159.552 402.626C159.552 408.489 152.712 422.662 146.847 429.504C144.893 375.749 96.0248 370.372 89.4262 327.614C89.183 333.966 82.5845 340.319 81.8525 345.694C81.119 351.071 77.943 355.223 72.078 352.781C66.215 350.337 64.7479 340.074 70.6128 338.609C76.4778 337.142 75.3783 327.369 79.0426 326.147C82.7069 324.925 83.318 321.016 81.8525 316.129C80.3854 311.243 82.5845 305.378 84.0516 301.714C85.5167 298.048 83.318 291.939 78.1866 289.741C73.5202 287.858 71.2638 282.548 73.1469 277.882C73.1955 277.761 73.2466 277.642 73.3003 277.524C67.9253 273.614 69.4579 265.165 76.721 263.597C85.7619 261.641 85.5167 276.545 90.6481 278.257C89.9165 275.325 90.8933 269.705 93.0924 266.039C90.1597 259.685 93.826 254.556 99.689 254.556C109.952 254.556 106.531 271.659 104.087 277.035C107.508 272.147 112.885 266.527 117.037 270.439C121.192 274.346 120.514 282.512 116.06 286.074C112.394 289.007 104.82 293.65 107.02 298.781C111.417 306.6 114.105 315.884 114.595 327.858C120.703 332.501 124.613 337.875 124.613 342.273C128.643 342.518 136.364 345.863 137.44 350.582C142.326 350.092 149.624 351.073 151.733 355.591C153.323 354.735 157.562 354.45 160.129 354.693C160.127 350.904 161.386 347.223 163.707 344.229C155.4 334.943 155.643 320.284 164.195 314.419C161.76 308.332 162.73 297.071 170.792 291.206C170.618 285.096 172.259 277.035 180.321 271.904C179.099 265.305 183.254 256.266 188.385 255.778C187.163 249.424 188.086 241.583 195.171 237.916C193.492 236.042 192.629 233.574 192.775 231.061C180.346 233.748 175.489 241.355 171.525 248.448C171.037 245.515 170.303 241.606 168.593 238.673C168.593 246.247 162.973 248.936 162.73 259.442C158.575 255.044 157.11 247.957 157.353 243.071C157.548 239.16 151.002 235.497 152.955 228.655C162.73 237.696 182.522 217.904 199.625 224.258C182.765 188.828 170.549 205.931 161.996 212.041C153.444 218.149 147.335 209.108 148.314 203.243C136.829 200.556 123.145 201.044 108.242 203.977C119.236 189.559 145.137 183.208 164.195 184.673C172.502 169.281 182.522 171.48 192.294 172.945C198.684 173.905 206.147 173.926 213.552 173.552C218.195 160.602 245.316 159.263 248.005 149C250.449 150.954 248.964 158.307 246.521 164.659C253.585 162.544 259.651 160.286 261.687 155.842C262.909 159.995 260.955 171.234 258.266 174.656C261.046 173.876 263.934 173.546 266.818 173.678C258.266 178.565 247.517 185.895 245.806 187.117C244.095 188.339 243.117 190.781 247.517 193.225C242.628 194.203 228.946 199.091 223.327 195.181" stroke="black" stroke-width="1.8"/>
<path d="M61.8174 259.319C68.2916 254.676 77.1446 258.109 79.0428 264.939C80.2648 269.337 72.8428 272.603 72.2011 268.483C71.3467 262.985 67.8032 259.565 61.8174 259.319Z" fill="#D0021B" stroke="black" stroke-width="1.8"/>
<path d="M87.2085 245.114C94.7438 242.523 102.241 248.348 102.101 255.437C102.011 259.999 93.964 260.999 94.5312 256.87C95.2875 251.357 92.8742 247.064 87.2085 245.114Z" fill="#D0021B" stroke="black" stroke-width="1.8"/>
<path d="M115.231 257.623C122.418 261.061 123.674 270.471 118.602 275.426C115.337 278.615 108.901 273.683 112.203 271.136C116.608 267.74 117.899 262.985 115.231 257.623Z" fill="#D0021B" stroke="black" stroke-width="1.8"/>
<path d="M58 356.382C64.271 361.295 73.2621 358.244 75.4495 351.5C76.8574 347.157 69.5786 343.579 68.7646 347.669C67.6768 353.124 63.9913 356.392 58 356.382Z" fill="#D0021B" stroke="black" stroke-width="1.8"/>
<path d="M102.132 455.192C104.758 447.669 113.975 445.383 119.457 449.878C122.985 452.774 118.792 459.714 115.898 456.712C112.034 452.707 107.169 451.947 102.132 455.192Z" fill="#D0021B" stroke="black" stroke-width="1.8"/>
<path d="M93.8875 475.422C94.3241 467.467 104.985 462.468 111.5 465.267C115.695 467.069 113.592 474.901 109.977 472.819C105.156 470.044 97.8275 470.908 93.8875 475.422Z" fill="#D0021B" stroke="black" stroke-width="1.8"/>
<path d="M105.474 494.193C102.74 486.71 108.42 479.102 115.511 479.107C120.075 479.111 121.228 487.137 117.087 486.649C111.563 485.997 107.316 488.493 105.474 494.193Z" fill="#D0021B" stroke="black" stroke-width="1.8"/>
<path d="M220.394 487.513C221.338 479.602 214.062 473.502 207.163 475.133C202.721 476.185 203.441 484.261 207.358 482.835C212.587 480.933 217.293 482.387 220.394 487.513Z" fill="#D0021B" stroke="black" stroke-width="1.8"/>
<path d="M264.478 490.039C262.842 482.241 269.552 475.524 276.568 476.543C281.087 477.198 281.081 485.306 277.051 484.232C271.676 482.797 267.118 484.659 264.478 490.039Z" fill="#D0021B" stroke="black" stroke-width="1.8"/>
<path d="M374.405 488.133C375.016 480.188 367.49 474.397 360.665 476.319C356.271 477.556 357.329 485.595 361.185 484.007C366.329 481.887 371.091 483.141 374.405 488.133Z" fill="#D0021B" stroke="black" stroke-width="1.8"/>
<path d="M251.426 473.493C250.258 465.614 258.076 458.831 265.02 460.266C269.491 461.191 268.282 469.758 264.323 468.446C259.042 466.694 254.38 468.282 251.426 473.493Z" fill="#D0021B" stroke="black" stroke-width="1.8"/>
<path d="M261.66 450.822C262.097 442.867 271.121 437.795 277.635 440.596C281.828 442.398 278.92 450.55 275.308 448.468C270.487 445.691 265.6 446.31 261.66 450.822Z" fill="#D0021B" stroke="black" stroke-width="1.8"/>
<path d="M429.897 494.192C428.261 486.394 434.97 479.676 441.987 480.695C446.505 481.353 446.5 489.461 442.47 488.386C437.095 486.951 432.536 488.813 429.897 494.192Z" fill="#D0021B" stroke="black" stroke-width="1.8"/>
<path d="M539.08 490.46C540.771 482.674 534.108 475.909 527.084 476.88C522.563 477.504 522.512 485.612 526.548 484.565C531.934 483.168 536.481 485.061 539.08 490.46Z" fill="#D0021B" stroke="black" stroke-width="1.8"/>
<path d="M415.833 476.12C414.682 468.237 421.796 461.947 428.736 463.399C433.204 464.334 432.695 472.427 428.741 471.103C423.464 469.339 418.799 470.915 415.833 476.12Z" fill="#D0021B" stroke="black" stroke-width="1.8"/>
<path d="M419.9 454.605C420.047 446.639 428.09 441.592 434.701 444.155C438.957 445.804 437.139 453.705 433.452 451.757C428.533 449.156 423.674 449.953 419.9 454.605Z" fill="#D0021B" stroke="black" stroke-width="1.8"/>
<path d="M447.387 194.447C428.816 200.801 356.98 229.143 343.786 233.541C330.593 237.939 323.751 238.918 315.932 256.998" stroke="black" stroke-width="1.22729"/>
<path d="M412.69 173.433C365.778 203.731 327.661 230.12 316.909 255.043C306.158 279.966 306.891 295.115 280.746 299.512" stroke="black" stroke-width="1.22729"/>
<path d="M205.49 346.427C217.219 332.744 241.652 316.129 265.108 315.152C260.522 322.614 256.597 330.463 253.38 338.609" stroke="black" stroke-width="1.22729"/>
<path d="M252.892 347.893C258.757 340.074 273.415 323.46 282.701 316.618C278.304 329.813 270.973 361.088 274.883 382.589C277.325 362.065 288.076 330.301 299.316 312.22C307.625 332.255 318.863 360.6 318.863 378.681C321.307 357.179 316.421 320.039 309.091 303.913C329.126 314.174 354.049 343.495 364.801 361.577C357.471 336.164 332.547 305.378 319.352 295.603C352.094 301.468 399.497 322.483 417.088 338.12C388.257 311.243 353.071 290.229 328.149 280.454C367.243 277.035 440.547 285.831 461.559 294.138C430.772 276.545 367.243 267.261 329.126 269.705C369.199 252.6 440.547 233.053 498.211 224.746C454.229 227.188 397.541 238.918 339.389 252.112C365.289 234.518 445.433 201.289 464.491 195.424" stroke="black" stroke-width="1.22729"/>
<path d="M217.219 182.719C220.708 171.186 234.948 168.125 246.521 164.658" stroke="black" stroke-width="1.22729"/>
<path d="M236.521 191.272C226.748 190.538 225.011 187.065 230.412 183.208C233.833 180.764 240.918 176.854 245.807 176.366C244.584 176.123 241.164 175.144 239.453 174.901C244.584 172.701 253.137 169.524 256.068 166.591" stroke="black" stroke-width="1.22729"/>
<path d="M225.158 172.701C221.419 173.04 217.495 173.352 213.552 173.552" stroke="black" stroke-width="1.22729"/>
<path d="M199.87 230.12C197.484 230.245 195.112 230.56 192.776 231.061" stroke="black" stroke-width="1.22729"/>
<path d="M160.129 354.692C160.013 361.664 162.411 368.444 166.883 373.793C170.792 378.191 194.739 379.658 195.716 371.349" stroke="black" stroke-width="1.22729"/>
<path d="M163.707 344.228C172.014 353.512 198.892 347.892 198.892 341.052" stroke="black" stroke-width="1.22729"/>
<path d="M164.196 314.418C167.128 321.749 198.404 328.346 198.892 319.793" stroke="black" stroke-width="1.22729"/>
<path d="M170.792 291.206C171.037 299.758 199.52 305.313 200.359 299.025" stroke="black" stroke-width="1.22729"/>
<path d="M180.322 271.904C181.543 278.5 200.359 284.854 203.046 281.921" stroke="black" stroke-width="1.22729"/>
<path d="M188.385 255.777C189.276 260.411 202.801 264.573 207.444 262.863" stroke="black" stroke-width="1.22729"/>
<path d="M195.172 237.916C197.943 241.281 203.322 244.413 212.576 246.003" stroke="black" stroke-width="1.22729"/>
<path d="M148.314 203.243C148.558 198.111 153.444 197.379 152.712 192.248" stroke="black" stroke-width="1.22729"/>
<path d="M199.625 224.257C201.336 226.944 205.734 232.564 206.222 236.719C208.666 234.763 210.62 230.609 211.354 228.655C213.709 230.729 215.408 233.447 216.24 236.474C217.219 233.541 218.929 228.41 219.172 225.234C222.699 226.062 225.971 227.74 228.702 230.12C229.19 226.944 227.725 222.79 225.281 221.079C227.991 221.195 230.685 220.606 233.1 219.369C231.389 216.927 228.702 213.749 226.014 212.284C228.459 211.55 231.878 208.62 233.345 207.397C231.146 206.42 227.237 204.22 224.792 202.999C226.258 201.532 227.48 198.602 228.213 196.401" stroke="black" stroke-width="1.22729"/>
<path d="M159.064 184.552C157.476 184.552 156.743 188.217 159.675 190.538C161.784 192.208 161.751 199.091 157.965 200.801" stroke="black" stroke-width="1.22729"/>
<path d="M216.24 236.473C205.49 261.395 195.594 308.676 199.014 342.883" stroke="black" stroke-width="1.22729"/>
<path d="M210.62 389.676C210.62 394.807 218.684 395.784 218.439 383.567" stroke="black" stroke-width="1.22729"/>
<path d="M217.707 389.675C218.684 394.073 226.991 395.05 225.28 382.1" stroke="black" stroke-width="1.22729"/>
<path d="M214.286 393.097C214.774 402.626 220.882 402.138 221.371 393.097" stroke="black" stroke-width="1.22729"/>
<path d="M225.526 386.498C227.968 392.363 234.81 389.43 232.856 376.48" stroke="black" stroke-width="1.22729"/>
<path d="M233.099 382.1C235.788 386.988 242.14 383.079 242.874 374.526" stroke="black" stroke-width="1.22729"/>
<path d="M201.336 354.979C197.143 359.571 192.333 369.878 198.158 379.658C201.581 385.398 210.988 388.576 211.965 385.155" stroke="black" stroke-width="1.22729"/>
<path d="M198.158 379.658C194.371 380.269 188.801 388.387 191.561 396.15C193.517 401.648 204.757 404.948 206.467 400.916" stroke="black" stroke-width="1.22729"/>
<path d="M313 386.498C325.216 387.966 341.344 379.658 342.321 363.042" stroke="black" stroke-width="1.22729"/>
<path d="M340.854 370.861C347.696 375.259 361.868 376.726 367.731 365.486" stroke="black" stroke-width="1.22729"/>
<path d="M347.208 374.282C340.854 388.942 335.098 404.519 348.184 415.82C358.936 425.106 366.921 411.263 379.95 425.106C383.859 429.259 379.216 437.077 339.877 459.802" stroke="black" stroke-width="1.22729"/>
<path d="M151.734 355.591C154.3 361.088 154.055 371.84 149.169 370.372" stroke="black" stroke-width="1.22729"/>
<path d="M113.128 477.15C121.436 464.444 131.244 474.711 138.295 472.507" stroke="black" stroke-width="1.22729"/>
<path d="M178.026 186.62C176.559 190.163 180.437 195.25 184.11 195.669C188.386 196.157 194.507 193.392 193.164 188.871" fill="white"/>
<path d="M178.026 186.62C176.559 190.163 180.437 195.25 184.11 195.669C188.386 196.157 194.507 193.392 193.164 188.871" stroke="black" stroke-width="1.22729"/>
<path d="M173.725 187.117C175.924 184.061 201.581 193.713 211.842 186.871" stroke="black" stroke-width="1.22729"/>
<path d="M90.6485 278.257C89.6717 280.454 90.0377 286.93 93.8264 290.474" stroke="black" stroke-width="1.22729"/>
<path d="M271.95 475.194C273.906 472.752 281.141 470.285 286.489 471.652C291.742 472.995 301.149 471.164 307.257 468.72" stroke="black" stroke-width="1.22729"/>
<path d="M216.24 236.473C213.798 260.418 219.295 297.193 233.345 313.564" stroke="black" stroke-width="1.22729"/>
<path d="M208.862 257.733C209.264 279.04 214.481 304.337 224.796 318.263" stroke="black" stroke-width="1.22729"/>
<path d="M203.215 280.954C205.245 297.078 209.817 313.292 217.042 323.823" stroke="black" stroke-width="1.22729"/>
<path d="M199.673 305.427C202.113 314.997 205.549 323.779 210.011 330.383" stroke="black" stroke-width="1.22729"/>
<path d="M198.415 328.585C199.782 331.654 201.411 334.601 203.282 337.392" stroke="black" stroke-width="1.22729"/>
<path d="M215.751 251.377C215.02 258.953 210.377 264.816 206.222 268.237" stroke="black" stroke-width="1.22729"/>
<path d="M216.239 261.886C215.508 269.459 210.376 276.301 203.657 279.6" stroke="black" stroke-width="1.22729"/>
<path d="M217.707 272.392C216.973 279.965 209.643 289.251 201.335 293.404" stroke="black" stroke-width="1.22729"/>
<path d="M219.661 282.898C218.929 290.474 209.4 301.956 199.698 305.642" stroke="black" stroke-width="1.22729"/>
<path d="M222.716 293.404C219.906 303.667 208.666 315.64 198.771 318.328" stroke="black" stroke-width="1.22729"/>
<path d="M227.114 303.912C226.38 311.485 211.353 326.88 198.403 331.278" stroke="black" stroke-width="1.22729"/>
<path d="M137.441 350.582C139.028 357.544 133.775 363.898 131.087 362.187" stroke="black" stroke-width="1.22729"/>
<path d="M165.418 374.772C140.006 369.395 121.111 360.439 110.686 339.585C107.997 334.211 115.084 332.744 114.595 327.857" stroke="black" stroke-width="1.22729"/>
<path d="M107.02 298.78C102.622 290.962 101.643 282.409 104.087 277.035" stroke="black" stroke-width="1.22729"/>
<path d="M124.613 342.273C124.613 346.672 119.359 352.291 117.526 350.214" stroke="black" stroke-width="1.22729"/>
<path d="M166.883 373.793C163.954 380.907 169.618 394.491 182.047 399.163" stroke="black" stroke-width="1.22729"/>
<path d="M191.561 396.15C190.078 397.271 189.015 398.859 188.543 400.657" stroke="black" stroke-width="1.22729"/>
<path d="M201.581 410.688C199.38 414.354 190.829 411.667 189.119 408.489" stroke="black" stroke-width="1.22729"/>
<path d="M167.189 450.761C156.828 460.947 146.275 461.522 133.654 462.978C120.947 464.445 117.405 458.702 112.885 463.466" stroke="black" stroke-width="1.22729"/>
<path d="M249.959 374.282C251.426 381.124 250.936 387.966 245.073 398.229C241.835 403.891 244.902 409.999 245.46 417.295" stroke="black" stroke-width="1.22729"/>
<path d="M306.223 394.072C311.824 389.651 315.52 382.359 317.398 376.726" stroke="black" stroke-width="1.22729"/>
<path d="M288.457 396.742C294.841 387.897 295.823 376.251 291.009 366.463" stroke="black" stroke-width="1.22729"/>
<path d="M258.617 407.423C262.373 401.623 264.62 393.361 264.62 382.589" stroke="black" stroke-width="1.22729"/>
<path d="M182.766 423.15C183.743 428.159 191.318 430.358 192.54 427.916" stroke="black" stroke-width="1.22729"/>
<path d="M243.362 364.264C243.362 369.15 238.476 372.816 234.81 369.883C235.298 376.969 230.169 379.17 226.503 375.749C227.237 385.767 218.929 386.743 213.553 378.924C207.444 408.978 186.92 431.457 185.453 446.118C184.965 449.539 171.892 448.562 175.313 438.544" stroke="black" stroke-width="1.22729"/>
<path d="M332.059 391.875C324.728 390.959 311.835 388.707 306.223 394.072" stroke="black" stroke-width="1.22729"/>
<path d="M334.991 414.843C328.216 417.53 322.742 418.475 318.379 418.154" stroke="black" stroke-width="1.22729"/>
<path d="M353.682 435.351C360.434 435.087 367.398 430.597 370.176 419.486" stroke="black" stroke-width="1.22729"/>
<path d="M340.603 429.722C346.356 428.241 351.176 424.325 353.804 418.998" stroke="black" stroke-width="1.22729"/>
<path d="M373.84 437.811C369.586 436.466 360.606 434.692 353.682 435.351" stroke="black" stroke-width="1.22729"/>
<path d="M349.651 454.182C352.339 452.715 347.941 446.118 343.541 446.118" stroke="black" stroke-width="1.22729"/>
<path d="M298.339 465.176C304.583 462.496 310.556 459.224 316.175 455.404" stroke="black" stroke-width="1.22729"/>
<path d="M333.403 452.96C336.72 454.067 341.588 458.335 339.877 459.802" stroke="black" stroke-width="1.22729"/>
<path d="M364.801 361.577C368.71 368.418 376.039 372.816 385.813 368.418C386.501 370.479 388.824 372.594 391.717 374.283" stroke="black" stroke-width="1.22729"/>
<path d="M418.799 359.866C423.687 363.775 415.135 378.191 402.429 377.702" stroke="black" stroke-width="1.22729"/>
<path d="M487.214 448.074C488.909 452.14 495.278 451.738 497.722 448.074C500.513 443.887 505.541 430.969 502.609 405.068C499.676 379.17 474.754 375.749 445.921 369.884C417.088 364.021 409.758 354.735 403.895 337.632" stroke="black" stroke-width="1.22729"/>
<path d="M492.103 434.635C494.545 438.788 501.387 437.811 502.363 433.656" stroke="black" stroke-width="1.22729"/>
<path d="M492.834 420.708C496.5 422.906 503.585 422.173 503.34 417.287" stroke="black" stroke-width="1.22729"/>
<path d="M490.88 405.314C494.056 405.314 502.608 405.802 502.12 401.893" stroke="black" stroke-width="1.22729"/>
<path d="M482.816 395.296C485.504 393.34 493.079 385.033 488.925 382.589" stroke="black" stroke-width="1.22729"/>
<path d="M469.135 393.83C473.776 391.141 478.907 377.214 473.287 375.992" stroke="black" stroke-width="1.22729"/>
<path d="M446.898 391.141C454.229 388.208 461.071 373.059 456.184 372.083" stroke="black" stroke-width="1.22729"/>
<path d="M423.199 387.72C435.17 384.544 438.836 368.418 434.193 366.951" stroke="black" stroke-width="1.22729"/>
<path d="M439.568 460.045C452.037 461.043 458.872 467.621 463.758 470.308" stroke="black" stroke-width="1.22729"/>
<path d="M436.637 327.369C447.997 326.269 459.166 343.644 474.651 356.633" stroke="black" stroke-width="1.22729"/>
<path d="M561.91 250.403C564.048 242.833 565.839 235.721 566.626 231.587" stroke="black" stroke-width="1.22729"/>
<path d="M446.632 474.66C449.546 474.176 452.497 473.947 455.451 473.974" stroke="black" stroke-width="1.22729"/>
<path d="M557.341 225.722C555.689 230.4 552.14 239.92 548.602 249.072" stroke="black" stroke-width="1.22729"/>
<path d="M249.99 306.196C228.439 313.626 206.122 327.892 191.806 354.246C199.625 356.2 214.774 354.246 221.616 351.802C222.105 358.156 222.105 366.463 222.105 371.84C228.947 366.463 237.254 358.644 243.607 356.691C243.117 363.042 243.117 374.282 243.117 378.681C252.403 368.907 269.994 367.93 274.883 382.589C278.792 361.088 311.044 360.111 318.863 378.681C327.66 361.577 350.14 355.223 364.8 361.577C371.152 343.495 399.007 333.723 417.088 338.12C411.095 329.836 412.166 320.676 417.077 312.804" stroke="black" stroke-width="1.22729"/>
<path d="M180.502 187.311L190.107 189.089C190.107 189.089 183.346 198.158 180.502 187.311Z" fill="black" stroke="black" stroke-width="1.8" stroke-linejoin="round"/>
</g>
</svg>
