<svg width="643" height="643" viewBox="0 0 643 643" fill="none" xmlns="http://www.w3.org/2000/svg">
<mask id="mask0" mask-type="alpha" maskUnits="userSpaceOnUse" x="0" y="0" width="643" height="643">
<path d="M643 0H0V643H643V0Z" fill="white"/>
</mask>
<g mask="url(#mask0)">
<path d="M643 0H0V643H643V0Z" fill="white"/>
<path d="M643 212H0V431H643V212Z" fill="#345099"/>
<path d="M643 431H0V650H643V431Z" fill="#D0021B"/>
<path d="M341.479 163H333.376H217.917H102.461H94.358L93.511 171.059C93.327 172.811 89 215.03 89 307.749C89 351.312 103.726 389.745 132.77 421.979C153.119 444.564 179.693 463.578 214.012 480.108L217.917 481.989L221.823 480.108C256.143 463.578 282.719 444.564 303.069 421.979C332.113 389.745 346.84 351.312 346.84 307.749C346.84 215.031 342.512 172.811 342.328 171.059L341.479 163Z" fill="white"/>
<path d="M217.917 472C168.577 448.234 98 401.062 98 307.749C98 214.436 102.461 172 102.461 172H217.917H333.376C333.376 172 337.839 214.437 337.839 307.749C337.839 401.062 267.261 448.234 217.917 472Z" fill="#EE1C25"/>
<path d="M228.484 283.284C241.844 283.5 267.909 284.023 291.119 276.257C291.119 276.257 290.506 284.563 290.506 294.237C290.506 303.914 291.119 312.219 291.119 312.219C269.83 305.094 243.539 304.946 228.484 305.137V356.676H207.38V305.137C192.325 304.946 166.035 305.094 144.745 312.219C144.745 312.219 145.358 303.914 145.358 294.237C145.358 284.562 144.745 276.257 144.745 276.257C167.955 284.023 194.02 283.5 207.38 283.284V250.916C195.203 250.808 177.657 251.389 157.817 258.029C157.817 258.029 158.43 249.724 158.43 240.047C158.43 230.371 157.817 222.066 157.817 222.066C177.627 228.694 195.153 229.285 207.326 229.18C206.7 208.682 200.729 182.848 200.729 182.848C200.729 182.848 213.018 183.807 217.931 183.807C222.849 183.807 235.134 182.848 235.134 182.848C235.134 182.848 229.165 208.683 228.538 229.178C240.712 229.284 258.237 228.693 278.047 222.064C278.047 222.064 277.434 230.369 277.434 240.045C277.434 249.722 278.047 258.027 278.047 258.027C258.208 251.388 240.661 250.806 228.484 250.914V283.282V283.284Z" fill="white"/>
<path d="M217.904 351.094C193.052 351.094 179.741 385.563 179.741 385.563C179.741 385.563 172.356 369.219 152.08 369.219C138.361 369.219 128.251 381.42 121.824 392.719C146.783 432.424 186.604 456.926 217.903 472C249.208 456.925 289.055 432.429 314.015 392.719C307.588 381.42 297.478 369.219 283.759 369.219C263.482 369.219 256.066 385.563 256.066 385.563C256.066 385.563 242.758 351.094 217.904 351.094Z" fill="#345099"/>
</g>
</svg>
