<svg width="643" height="643" viewBox="0 0 643 643" fill="none" xmlns="http://www.w3.org/2000/svg">
<mask id="mask0" mask-type="alpha" maskUnits="userSpaceOnUse" x="0" y="0" width="643" height="643">
<path d="M643 0H0V643H643V0Z" fill="white"/>
</mask>
<g mask="url(#mask0)">
<path d="M643 0H0V643H643V0Z" fill="#D0021B"/>
<path d="M-576 411.2V231.8L1219 411.2V231.8L-576 411.2ZM231.75 -127H411.25L321.5 225.393L231.75 -127ZM411.25 770H231.75L321.5 417.607L411.25 770ZM-576 -127H-306.75L403.942 370.963L-576 -127ZM-576 770H-306.75L403.942 272.037L-576 770ZM1219 -127H949.75L239.058 370.963L1219 -127ZM1219 770H949.75L239.058 272.037L1219 770Z" fill="#F8E92E"/>
<path d="M321.5 481C410.142 481 482 409.366 482 321C482 232.634 410.142 161 321.5 161C232.858 161 161 232.634 161 321C161 409.366 232.858 481 321.5 481Z" fill="#D0021B"/>
<path d="M321.5 449C392.469 449 450 391.469 450 320.5C450 249.531 392.469 192 321.5 192C250.531 192 193 249.531 193 320.5C193 391.469 250.531 449 321.5 449Z" fill="#F8E92E"/>
</g>
</svg>
