<svg width="643" height="643" viewBox="0 0 643 643" fill="none" xmlns="http://www.w3.org/2000/svg">
<mask id="mask0" mask-type="alpha" maskUnits="userSpaceOnUse" x="0" y="0" width="643" height="643">
<path d="M643 0H0V643H643V0Z" fill="white"/>
</mask>
<g mask="url(#mask0)">
<path d="M643 0H0V643H643V0Z" fill="#D0021B"/>
<path d="M243.31 460.621C319.697 460.621 381.621 398.697 381.621 322.31C381.621 245.924 319.697 184 243.31 184C166.924 184 105 245.924 105 322.31C105 398.697 166.924 460.621 243.31 460.621Z" fill="white"/>
<path d="M282.828 434.276C344.665 434.276 394.793 384.147 394.793 322.31C394.793 260.473 344.665 210.345 282.828 210.345C220.991 210.345 170.862 260.473 170.862 322.31C170.862 384.147 220.991 434.276 282.828 434.276Z" fill="#D0021B"/>
<path d="M355.275 322.311L487 367.086L405.589 249.862V394.759L487 277.535L355.275 322.311Z" fill="white"/>
</g>
</svg>
