<svg width="643" height="643" viewBox="0 0 643 643" fill="none" xmlns="http://www.w3.org/2000/svg">
<mask id="mask0" mask-type="alpha" maskUnits="userSpaceOnUse" x="0" y="0" width="643" height="643">
<path d="M643 0H0V643H643V0Z" fill="white"/>
</mask>
<g mask="url(#mask0)">
<path d="M643 0H0V643H643V0Z" fill="#D0021B"/>
<path d="M242 0H0V650H242V0Z" fill="#2E9628"/>
<path fill-rule="evenodd" clip-rule="evenodd" d="M355.1 411.682C311.43 410.366 111.178 285.37 109.805 265.465L120.863 247.024C140.726 275.886 345.443 397.447 365.55 393.14L355.099 411.676" fill="#FFFF00"/>
<path d="M355.1 411.682C311.43 410.366 111.178 285.37 109.805 265.465L120.863 247.024C140.726 275.886 345.443 397.447 365.55 393.14L355.099 411.676" stroke="black" stroke-width="0.573" stroke-linecap="round" stroke-linejoin="round"/>
<path fill-rule="evenodd" clip-rule="evenodd" d="M118.536 244.519C114.619 255.062 170.791 289.79 238.376 330.896C305.958 371.999 364.233 397.4 368.552 393.757C368.816 393.286 370.677 390.084 370.506 390.109C369.697 391.33 367.726 391.715 364.651 390.829C346.392 385.562 298.77 363.703 239.793 327.939C180.818 292.172 129.507 259.212 121.532 245.207C120.977 244.237 120.582 242.466 120.663 241.089L120.469 241.086L118.771 244.054L118.537 244.52H118.536L118.536 244.519ZM356.126 412.26C355.385 413.604 354.005 413.648 351.382 413.36C335.048 411.552 285.481 387.449 226.831 352.339C158.587 311.488 102.225 274.265 108.34 264.537L110.004 261.596L110.331 261.698C104.833 278.184 221.563 344.929 228.435 349.185C295.977 391.029 352.918 415.465 357.957 409.115L356.124 412.267V412.264L356.126 412.26Z" fill="#FFFF00" stroke="black" stroke-width="0.573" stroke-linecap="round" stroke-linejoin="round"/>
<path fill-rule="evenodd" clip-rule="evenodd" d="M242.246 277.521C285.955 277.175 339.892 271.548 370.933 259.177L364.245 248.311C345.898 258.465 291.664 265.143 241.876 266.142C182.991 265.6 141.426 260.117 120.6 246.143L114.287 257.713C152.57 273.914 191.801 277.354 242.246 277.522" fill="#FFFF00"/>
<path d="M242.246 277.521C285.955 277.175 339.892 271.548 370.933 259.177L364.245 248.311C345.898 258.465 291.664 265.143 241.876 266.142C182.991 265.6 141.426 260.117 120.6 246.143L114.287 257.713C152.57 273.914 191.801 277.354 242.246 277.522" stroke="black" stroke-width="0.573" stroke-linecap="round" stroke-linejoin="round"/>
<path fill-rule="evenodd" clip-rule="evenodd" d="M372.735 259.422C371.667 261.131 351.423 268.112 321.602 273.264C301.382 276.347 275.006 278.982 242.091 279.014C210.82 279.043 185.274 276.817 165.934 274.196C134.629 269.288 118.473 262.458 112.5 260.045C113.071 258.909 113.438 258.112 113.989 257.051C131.183 263.897 147.415 268.025 166.431 270.951C185.644 273.553 210.882 275.811 241.999 275.782C274.761 275.749 300.845 272.913 320.949 269.922C351.529 264.99 368.234 258.642 370.58 255.695L372.74 259.422H372.737H372.735ZM366.866 248.404C363.551 251.066 347.036 256.923 317.979 261.563C298.587 264.342 273.93 266.83 242.428 266.86C212.499 266.89 188.048 264.873 169.449 262.163C139.94 258.31 124.234 251.357 118.572 249.331C119.135 248.357 119.709 247.39 120.298 246.42C124.704 248.638 139.86 254.791 169.773 259.029C188.16 261.636 212.649 263.579 242.429 263.548C273.783 263.516 298.159 260.98 317.428 258.216C346.636 254.198 362.351 246.728 364.738 244.858L366.867 248.401V248.404L366.866 248.404Z" fill="#FFFF00" stroke="black" stroke-width="0.573" stroke-linecap="round" stroke-linejoin="round"/>
<path fill-rule="evenodd" clip-rule="evenodd" d="M98.7176 330.182C125.602 344.642 185.313 351.929 241.818 352.43C293.266 352.512 360.292 344.477 385.356 331.195L384.666 316.722C376.825 328.977 304.998 340.731 241.26 340.25C177.521 339.769 118.334 329.925 98.6033 317.181L98.718 330.178" fill="#FFFF00"/>
<path d="M98.7176 330.182C125.602 344.642 185.313 351.929 241.818 352.43C293.266 352.512 360.292 344.477 385.356 331.195L384.666 316.722C376.825 328.977 304.998 340.731 241.26 340.25C177.521 339.769 118.334 329.925 98.6033 317.181L98.718 330.178" stroke="black" stroke-width="0.573" stroke-linecap="round" stroke-linejoin="round"/>
<path fill-rule="evenodd" clip-rule="evenodd" d="M386.728 328.1L386.729 331.551C382.962 336.056 359.342 342.864 329.721 347.658C307.178 351.114 277.787 353.721 241.164 353.721C206.371 353.721 178.626 351.24 157.109 347.937C123.097 342.984 101.341 334.311 96.9741 331.722L96.9932 327.696C110.111 336.418 145.652 342.798 157.586 344.751C178.963 348.032 206.544 350.494 241.163 350.494C277.614 350.494 306.84 347.905 329.242 344.471C350.493 341.402 380.767 333.418 386.727 328.102H386.728L386.728 328.1ZM386.742 315.824L386.744 319.276C382.977 323.777 359.356 330.585 329.736 335.379C307.192 338.835 277.802 341.442 241.179 341.442C206.386 341.442 178.64 338.964 157.123 335.658C123.111 330.708 101.356 322.035 96.9886 319.445L97.0077 315.419C110.126 324.139 145.666 330.52 157.601 332.47C178.977 335.754 206.558 338.218 241.178 338.218C277.628 338.218 306.854 335.627 329.256 332.191C350.507 329.121 380.781 321.138 386.741 315.822L386.742 315.825L386.742 315.824Z" fill="#FFFF00" stroke="black" stroke-width="0.573" stroke-linecap="round" stroke-linejoin="round"/>
<path fill-rule="evenodd" clip-rule="evenodd" d="M241.697 409.195C179.868 408.827 126.89 392.342 115.703 389.617L123.861 402.387C143.621 410.7 195.305 423.088 242.29 421.716C289.276 420.345 330.338 416.706 359.275 402.619L367.639 389.384C347.919 398.672 280.808 409.1 241.696 409.195" fill="#FFFF00"/>
<path d="M241.697 409.195C179.868 408.827 126.89 392.342 115.703 389.617L123.861 402.387C143.621 410.7 195.305 423.088 242.29 421.716C289.276 420.345 330.338 416.706 359.275 402.619L367.639 389.384C347.919 398.672 280.808 409.1 241.696 409.195" stroke="black" stroke-width="0.573" stroke-linecap="round" stroke-linejoin="round"/>
<path fill-rule="evenodd" clip-rule="evenodd" d="M362.414 399.655C361.185 401.533 359.932 403.388 358.661 405.19C345.012 410.003 323.507 415.055 314.432 416.529C295.894 420.349 267.213 423.17 241.758 423.183C186.987 422.381 142.153 411.659 121.061 402.513L119.359 399.587L119.637 399.147L122.523 400.267C160.032 413.686 202.16 419.04 242.067 420.001C267.419 420.09 292.798 417.096 313.321 413.425C344.792 407.12 357.517 402.367 361.421 400.212L362.414 399.655H362.413L362.414 399.655ZM369.667 387.692C369.698 387.729 369.73 387.765 369.761 387.805C368.842 389.356 367.895 390.934 366.924 392.52C359.645 395.122 339.89 400.903 311.041 404.937C292.034 407.526 280.219 410.034 242.408 410.768C171.555 408.965 125.68 395.111 114.782 391.694L113.167 388.596C154.229 399.315 196.173 406.798 242.41 407.563C277.004 406.826 291.721 404.279 310.571 401.709C344.21 396.478 361.159 390.94 366.246 389.341C366.182 389.249 366.107 389.152 366.023 389.053L369.67 387.69L369.667 387.693L369.667 387.692Z" fill="#FFFF00" stroke="black" stroke-width="0.55" stroke-linecap="round" stroke-linejoin="round"/>
<path fill-rule="evenodd" clip-rule="evenodd" d="M370.408 318.762C370.608 359.435 349.794 395.934 333.029 412.036C309.311 434.816 277.863 449.47 241.137 450.145C200.127 450.898 161.459 424.162 151.087 412.417C130.809 389.455 114.299 360.295 113.77 320.997C116.282 276.606 133.709 245.684 158.97 224.479C184.23 203.275 217.865 192.948 245.877 193.686C278.197 194.539 315.95 210.394 342.036 241.869C359.127 262.491 366.528 284.871 370.408 318.762ZM241.486 179.495C320.246 179.495 385.022 243.588 385.022 322.175C385.022 400.761 320.246 464.856 241.486 464.856C162.725 464.856 98.4866 400.762 98.4866 322.175C98.4866 243.588 162.725 179.495 241.486 179.495Z" fill="#FFFF00" stroke="black" stroke-width="0.573" stroke-linecap="round" stroke-linejoin="round"/>
<path fill-rule="evenodd" clip-rule="evenodd" d="M241.87 179.007C320.701 179.007 384.995 243.309 384.995 322.148C384.995 400.985 320.7 465.285 241.87 465.285C163.039 465.285 98.7451 400.986 98.7451 322.148C98.7451 243.309 163.04 179.007 241.87 179.007ZM101.895 322.148C101.895 399.138 165.117 462.138 241.87 462.138C318.624 462.138 381.846 399.138 381.846 322.148C381.846 245.156 318.623 182.156 241.87 182.156C165.117 182.156 101.895 245.158 101.895 322.148Z" fill="#FFFF00" stroke="black" stroke-width="0.573" stroke-linecap="round" stroke-linejoin="round"/>
<path fill-rule="evenodd" clip-rule="evenodd" d="M241.986 190.904C313.874 190.904 373.087 249.912 373.087 322.02C373.087 394.13 313.873 453.135 241.986 453.135C170.099 453.135 110.885 394.13 110.885 322.02C110.885 249.912 170.1 190.904 241.986 190.904ZM114.033 322.019C114.033 392.396 171.825 449.985 241.986 449.985C312.147 449.985 369.938 392.396 369.938 322.019C369.938 251.642 312.148 194.053 241.986 194.053C171.825 194.053 114.033 251.642 114.033 322.019Z" fill="#FFFF00" stroke="black" stroke-width="0.573" stroke-linecap="round" stroke-linejoin="round"/>
<path fill-rule="evenodd" clip-rule="evenodd" d="M247.753 178.428H235.487L235.502 466.034H247.81L247.753 178.428Z" fill="#FFFF00" stroke="black" stroke-width="0.573" stroke-linecap="round" stroke-linejoin="round"/>
<path fill-rule="evenodd" clip-rule="evenodd" d="M246.525 176.789H249.647L249.674 467.705H246.549L246.526 176.789H246.525ZM234.351 176.792H237.498L237.502 467.708H234.353V176.792H234.351Z" fill="#FFFF00" stroke="black" stroke-width="0.573" stroke-linecap="round" stroke-linejoin="round"/>
<path fill-rule="evenodd" clip-rule="evenodd" d="M385.094 327.688V317.056L376.436 308.99L327.287 295.98L256.455 288.752L171.168 293.089L110.455 307.544L98.1973 316.622V327.257L129.248 313.326L202.97 301.762H273.802L325.842 307.544L361.98 316.218L385.094 327.688Z" fill="#FFFF00" stroke="black" stroke-width="0.573" stroke-linecap="round" stroke-linejoin="round"/>
<path fill-rule="evenodd" clip-rule="evenodd" d="M241.928 299.984C275.729 299.922 308.524 303.187 334.537 308.252C361.379 313.618 380.269 320.331 386.728 327.87L386.721 331.602C378.932 322.221 353.512 315.343 333.932 311.411C308.118 306.389 275.543 303.147 241.928 303.21C206.457 303.276 173.428 306.635 147.991 311.598C127.579 315.649 100.358 323.695 96.96 331.631V327.744C98.8263 322.25 119.096 314.041 147.531 308.349C173.159 303.351 206.249 300.049 241.928 299.984V299.984ZM241.942 287.709C275.743 287.647 308.539 290.914 334.551 295.976C361.393 301.345 380.284 308.055 386.742 315.594L386.735 319.327C378.946 309.947 353.527 303.069 333.947 299.138C308.132 294.114 275.557 290.872 241.942 290.937C206.472 291 173.603 294.362 148.163 299.323C128.466 303.057 100.133 311.421 96.973 319.358V315.468C98.8393 310.035 119.519 301.531 147.545 296.074C173.173 291.076 206.263 287.777 241.942 287.709V287.709Z" fill="#FFFF00" stroke="black" stroke-width="0.573" stroke-linecap="round" stroke-linejoin="round"/>
<path fill-rule="evenodd" clip-rule="evenodd" d="M241.248 225.091C294.515 224.824 340.976 232.539 362.233 243.427L369.987 256.841C351.511 246.884 301.387 236.531 241.326 238.079C192.389 238.38 140.099 243.467 113.864 257.464L123.12 241.983C144.652 230.818 195.429 225.153 241.25 225.094" fill="#FFFF00"/>
<path d="M241.248 225.091C294.515 224.824 340.976 232.539 362.233 243.427L369.987 256.841C351.511 246.884 301.387 236.531 241.326 238.079C192.389 238.38 140.099 243.467 113.864 257.464L123.12 241.983C144.652 230.818 195.429 225.153 241.25 225.094" stroke="black" stroke-width="0.573" stroke-linecap="round" stroke-linejoin="round"/>
<path fill-rule="evenodd" clip-rule="evenodd" d="M241.957 236.163C272.338 236.083 301.694 237.797 325.041 242.009C346.783 246.055 367.518 252.129 370.483 255.395L372.782 259.457C365.571 254.749 347.628 249.506 324.589 245.137C301.451 240.789 272.115 239.348 241.903 239.427C207.612 239.31 180.971 241.12 158.107 245.107C133.926 249.631 117.149 256.095 113.01 259.166L115.263 254.873C123.304 250.77 136.064 245.825 157.506 241.964C181.151 237.645 208.075 236.35 241.959 236.164H241.958L241.957 236.163ZM241.944 223.899C271.018 223.823 299.725 225.443 322.102 229.465C339.751 232.901 357.204 238.265 363.595 243.038L366.957 248.38C361.242 242.027 339.728 236.007 320.737 232.635C298.532 228.805 271.017 227.289 241.943 227.047C211.431 227.132 183.232 229.001 161.351 232.985C140.476 236.958 127.005 241.661 121.305 245.334L124.262 240.872C132.127 236.731 144.835 232.928 160.838 229.818C182.881 225.805 211.253 223.984 241.945 223.899H241.944Z" fill="#FFFF00" stroke="black" stroke-width="0.573" stroke-linecap="round" stroke-linejoin="round"/>
<path fill-rule="evenodd" clip-rule="evenodd" d="M313.049 381.643C286.714 376.727 260.331 376.013 241.903 376.23C153.137 377.27 124.461 394.457 120.962 399.661L114.328 388.846C136.927 372.465 185.265 363.279 242.384 364.218C272.044 364.704 297.639 366.674 319.17 370.844L313.047 381.646" fill="#FFFF00"/>
<path d="M313.049 381.643C286.714 376.727 260.331 376.013 241.903 376.23C153.137 377.27 124.461 394.457 120.962 399.661L114.328 388.846C136.927 372.465 185.265 363.279 242.384 364.218C272.044 364.704 297.639 366.674 319.17 370.844L313.047 381.646" stroke="black" stroke-width="0.573" stroke-linecap="round" stroke-linejoin="round"/>
<path fill-rule="evenodd" clip-rule="evenodd" d="M241.393 374.705C266.086 375.073 290.323 376.093 313.718 380.456L312.024 383.446C290.296 379.436 267.132 377.901 241.477 378.026C208.716 377.769 175.582 380.829 146.734 389.108C137.632 391.641 122.563 397.493 121.027 402.329L119.341 399.55C119.827 396.691 128.935 390.759 145.96 385.976C179.002 376.514 209.909 374.919 241.393 374.702V374.705L241.393 374.705ZM242.514 362.278C268.097 362.756 294.517 363.939 320.197 369.026L318.433 372.139C295.243 367.536 273.087 366.001 242.664 365.533C209.8 365.593 174.939 367.936 143.243 377.151C133.01 380.132 115.348 386.576 114.76 391.679L113.074 388.693C113.458 384.059 128.747 378.013 142.503 374.012C174.444 364.726 209.395 362.338 242.514 362.278L242.514 362.278Z" fill="#FFFF00" stroke="black" stroke-width="0.55" stroke-linecap="round" stroke-linejoin="round"/>
<path fill-rule="evenodd" clip-rule="evenodd" d="M368.601 390.49L357.934 407.04L327.287 379.822L247.782 326.337L158.159 277.188L111.626 261.273L121.543 242.885L124.911 241.05L153.822 248.277L249.228 297.426L304.159 332.119L350.416 365.366L369.208 387.05L368.601 390.49Z" fill="#FFFF00" stroke="black" stroke-width="0.573" stroke-linecap="round" stroke-linejoin="round"/>
<path fill-rule="evenodd" clip-rule="evenodd" d="M109.95 261.706C118.111 256.171 178.091 282.891 240.851 320.734C303.445 358.685 363.255 401.57 357.856 409.596L356.08 412.389L355.266 413.031C355.44 412.906 356.34 411.806 355.178 408.831C352.511 400.056 310.084 366.2 239.687 323.695C171.06 282.773 113.866 258.109 108.147 265.159L109.95 261.706H109.949L109.95 261.706ZM370.784 390.254C375.944 380.06 320.311 338.151 251.336 297.346C180.774 257.354 129.918 233.813 120.629 240.833L118.565 244.59C118.548 244.796 118.641 244.333 119.077 243.997C120.766 242.523 123.565 242.623 124.829 242.6C140.824 242.839 186.506 263.862 250.6 300.606C278.684 316.963 369.237 375.039 368.892 391.371C368.916 392.774 369.008 393.064 368.48 393.759L370.783 390.255V390.252L370.784 390.254Z" fill="#FFFF00" stroke="black" stroke-width="0.573" stroke-linecap="round" stroke-linejoin="round"/>
<path d="M155.87 338.015C155.87 361.607 165.531 382.946 181.183 398.54C196.865 414.169 218.175 424.03 241.806 424.03C265.558 424.03 287.114 414.384 302.729 398.816C318.344 383.25 328.021 361.766 328.026 338.09H328.023V223.266L155.85 223.061L155.868 338.014H155.871L155.87 338.015Z" fill="white" stroke="black" stroke-width="0.67037"/>
<path d="M159.089 338.174V338.239C159.089 360.797 168.429 381.339 183.413 396.252C198.426 411.195 219.103 420.485 241.723 420.485C264.461 420.485 285.096 411.262 300.045 396.377C314.992 381.493 324.256 360.949 324.259 338.313H324.256V226.915L159.188 226.889L159.087 338.173L159.089 338.174ZM291.069 260.24L291.074 331.132L291.014 338.631H291.016C291.016 340.604 290.897 342.854 290.667 344.769C289.325 355.977 284.17 365.746 276.536 373.346C267.599 382.243 255.263 387.761 241.668 387.761C228.144 387.761 216.091 382.051 207.116 373.116C197.909 363.952 192.572 351.386 192.572 338.393L192.553 260.059L291.066 260.237L291.069 260.24L291.069 260.24Z" fill="#FF0000" stroke="black" stroke-width="0.50734"/>
<path d="M169.776 255.973C169.971 247.968 175.652 246.073 175.693 246.045C175.733 246.018 181.828 248.086 181.808 256.048L169.776 255.973" fill="#FFFF00"/>
<path d="M164.875 246.201L163.886 255.4L169.89 255.413C169.948 247.802 175.652 246.536 175.79 246.564C175.919 246.557 181.574 248.247 181.725 255.413H187.744L186.657 246.143L164.875 246.198V246.201L164.875 246.201Z" fill="#FFFF00" stroke="black" stroke-width="0.5"/>
<path d="M163.483 255.437H188.054C188.572 255.437 188.996 255.949 188.996 256.574C188.996 257.198 188.572 257.707 188.054 257.707H163.483C162.965 257.707 162.542 257.198 162.542 256.574C162.542 255.949 162.965 255.437 163.483 255.437Z" fill="#FFFF00" stroke="black" stroke-width="0.5"/>
<path d="M172.415 255.393C172.441 250.59 175.695 249.231 175.711 249.233C175.713 249.233 179.108 250.635 179.135 255.393H172.415" fill="#FFFF00"/>
<path d="M172.415 255.393C172.441 250.59 175.695 249.231 175.711 249.233C175.713 249.233 179.108 250.635 179.135 255.393H172.415" stroke="black" stroke-width="0.5"/>
<path d="M164.005 242.373H187.56C188.056 242.373 188.463 242.834 188.463 243.394C188.463 243.956 188.056 244.416 187.56 244.416H164.005C163.508 244.416 163.102 243.958 163.102 243.394C163.102 242.834 163.508 242.373 164.005 242.373Z" fill="#FFFF00" stroke="black" stroke-width="0.5"/>
<path d="M164.498 244.431H187.028C187.502 244.431 187.891 244.89 187.891 245.452C187.891 246.015 187.502 246.474 187.028 246.474H164.498C164.023 246.474 163.635 246.015 163.635 245.452C163.635 244.89 164.023 244.431 164.498 244.431Z" fill="#FFFF00" stroke="black" stroke-width="0.5"/>
<path d="M171.777 229.076L173.555 229.079V230.342H174.853V229.051L176.676 229.057V230.343H177.977V229.051H179.801L179.798 231.968C179.798 232.426 179.43 232.723 179.003 232.723H172.606C172.176 232.723 171.78 232.379 171.779 231.959L171.774 229.077H171.776L171.777 229.076Z" fill="#FFFF00" stroke="black" stroke-width="0.5"/>
<path d="M178.476 232.977L178.877 242.331L172.638 242.308L173.051 232.952L178.476 232.977" fill="#FFFF00"/>
<path d="M178.476 232.977L178.877 242.331L172.638 242.308L173.051 232.952L178.476 232.977" stroke="black" stroke-width="0.5"/>
<path d="M170.863 237.312L171.054 242.354L165.072 242.357L165.24 237.312H170.864H170.863L170.863 237.312Z" fill="#FFFF00" stroke="black" stroke-width="0.5"/>
<path d="M186.246 237.312L186.437 242.354L180.455 242.357L180.623 237.312H186.247H186.246L186.246 237.312Z" fill="#FFFF00" stroke="black" stroke-width="0.5"/>
<path d="M164.135 233.658L165.874 233.662V234.927H167.147V233.633L168.929 233.639V234.928H170.204V233.634L171.988 233.637L171.985 236.554C171.985 237.009 171.625 237.306 171.208 237.306H164.948C164.529 237.306 164.139 236.964 164.137 236.543L164.133 233.66H164.134L164.135 233.658Z" fill="#FFFF00" stroke="black" stroke-width="0.5"/>
<path d="M179.518 233.658L181.257 233.662V234.927H182.53V233.633L184.312 233.639V234.928H185.587V233.634L187.371 233.637L187.368 236.554C187.368 237.009 187.008 237.306 186.591 237.306H180.331C179.912 237.306 179.522 236.964 179.52 236.543L179.516 233.66H179.517L179.518 233.658Z" fill="#FFFF00" stroke="black" stroke-width="0.5"/>
<path d="M175.155 235.935C175.117 235.025 176.426 235.015 176.411 235.935V238.162H175.155V235.935" fill="black"/>
<path d="M167.427 239.168C167.422 238.29 168.64 238.272 168.625 239.168V240.889H167.427V239.168" fill="black"/>
<path d="M182.856 239.168C182.852 238.29 184.07 238.272 184.054 239.168V240.889H182.857V239.168" fill="black"/>
<path d="M169.776 323.137C169.971 315.132 175.652 313.237 175.693 313.209C175.733 313.182 181.828 315.25 181.808 323.211L169.776 323.137" fill="#FFFF00"/>
<path d="M164.875 313.364L163.886 322.564L169.89 322.577C169.948 314.966 175.652 313.7 175.79 313.728C175.919 313.721 181.574 315.411 181.725 322.577H187.744L186.657 313.307L164.875 313.362V313.365L164.875 313.364Z" fill="#FFFF00" stroke="black" stroke-width="0.5"/>
<path d="M163.483 322.601H188.054C188.572 322.601 188.996 323.112 188.996 323.738C188.996 324.362 188.572 324.871 188.054 324.871H163.483C162.965 324.871 162.542 324.362 162.542 323.738C162.542 323.112 162.965 322.601 163.483 322.601Z" fill="#FFFF00" stroke="black" stroke-width="0.5"/>
<path d="M172.415 322.557C172.441 317.754 175.695 316.395 175.711 316.397C175.713 316.397 179.108 317.799 179.135 322.557H172.415" fill="#FFFF00"/>
<path d="M172.415 322.557C172.441 317.754 175.695 316.395 175.711 316.397C175.713 316.397 179.108 317.799 179.135 322.557H172.415" stroke="black" stroke-width="0.5"/>
<path d="M164.005 309.536H187.56C188.056 309.536 188.463 309.998 188.463 310.558C188.463 311.12 188.056 311.58 187.56 311.58H164.005C163.508 311.58 163.102 311.122 163.102 310.558C163.102 309.998 163.508 309.536 164.005 309.536Z" fill="#FFFF00" stroke="black" stroke-width="0.5"/>
<path d="M164.498 311.595H187.028C187.502 311.595 187.891 312.054 187.891 312.616C187.891 313.178 187.502 313.637 187.028 313.637H164.498C164.023 313.637 163.635 313.178 163.635 312.616C163.635 312.054 164.023 311.595 164.498 311.595Z" fill="#FFFF00" stroke="black" stroke-width="0.5"/>
<path d="M171.777 296.24L173.555 296.243V297.506H174.853V296.215L176.676 296.22V297.507H177.977V296.215H179.801L179.798 299.132C179.798 299.59 179.43 299.887 179.003 299.887H172.606C172.176 299.887 171.78 299.543 171.779 299.123L171.774 296.241H171.776L171.777 296.24Z" fill="#FFFF00" stroke="black" stroke-width="0.5"/>
<path d="M178.476 300.14L178.877 309.495L172.638 309.472L173.051 300.116L178.476 300.14" fill="#FFFF00"/>
<path d="M178.476 300.14L178.877 309.495L172.638 309.472L173.051 300.116L178.476 300.14" stroke="black" stroke-width="0.5"/>
<path d="M170.863 304.476L171.054 309.518L165.072 309.521L165.24 304.476H170.864H170.863L170.863 304.476Z" fill="#FFFF00" stroke="black" stroke-width="0.5"/>
<path d="M186.246 304.476L186.437 309.518L180.455 309.521L180.623 304.476H186.247H186.246L186.246 304.476Z" fill="#FFFF00" stroke="black" stroke-width="0.5"/>
<path d="M164.135 300.822L165.874 300.826V302.091H167.147V300.797L168.929 300.803V302.092H170.204V300.798L171.988 300.8L171.985 303.717C171.985 304.173 171.625 304.469 171.208 304.469H164.948C164.529 304.469 164.139 304.128 164.137 303.707L164.133 300.823H164.134L164.135 300.822Z" fill="#FFFF00" stroke="black" stroke-width="0.5"/>
<path d="M179.518 300.822L181.257 300.826V302.091H182.53V300.797L184.312 300.803V302.092H185.587V300.798L187.371 300.8L187.368 303.717C187.368 304.173 187.008 304.469 186.591 304.469H180.331C179.912 304.469 179.522 304.128 179.52 303.707L179.516 300.823H179.517L179.518 300.822Z" fill="#FFFF00" stroke="black" stroke-width="0.5"/>
<path d="M175.155 303.098C175.117 302.189 176.426 302.179 176.411 303.098V305.326H175.155V303.099" fill="black"/>
<path d="M167.427 306.332C167.422 305.453 168.64 305.435 168.625 306.332V308.053H167.427V306.332" fill="black"/>
<path d="M182.856 306.332C182.852 305.453 184.07 305.435 184.054 306.332V308.053H182.857V306.332" fill="black"/>
<path d="M195.964 393.047C190.421 387.268 193.079 381.902 193.088 381.853C193.098 381.805 198.859 378.937 204.495 384.562L195.964 393.047" fill="#FFFF00"/>
<path d="M185.576 389.639L191.408 396.823L195.647 392.572C190.287 387.168 193.408 382.227 193.525 382.149C193.611 382.053 198.795 379.231 203.986 384.174L208.227 379.902L200.883 374.142L185.575 389.637L185.577 389.639L185.576 389.639Z" fill="#FFFF00" stroke="black" stroke-width="0.5"/>
<path d="M191.149 397.135L208.463 379.699C208.828 379.331 209.489 379.391 209.933 379.832C210.376 380.272 210.439 380.931 210.074 381.298L192.76 398.734C192.395 399.102 191.736 399.043 191.293 398.604C190.849 398.163 190.785 397.502 191.149 397.135Z" fill="#FFFF00" stroke="black" stroke-width="0.5"/>
<path d="M197.412 390.766C194.023 387.362 195.35 384.096 195.364 384.086C195.365 384.085 198.752 382.664 202.147 385.997L197.412 390.766" fill="#FFFF00"/>
<path d="M197.412 390.766C194.023 387.362 195.35 384.096 195.364 384.086C195.365 384.085 198.752 382.664 202.147 385.997L197.412 390.766" stroke="black" stroke-width="0.5"/>
<path d="M182.247 387.559L198.844 370.844C199.194 370.492 199.808 370.529 200.205 370.924C200.604 371.319 200.644 371.932 200.294 372.284L183.697 388.999C183.347 389.351 182.736 389.317 182.336 388.92C181.938 388.525 181.897 387.911 182.247 387.559Z" fill="#FFFF00" stroke="black" stroke-width="0.5"/>
<path d="M184.055 388.66L199.93 372.673C200.264 372.336 200.864 372.384 201.262 372.779C201.662 373.176 201.714 373.775 201.379 374.112L185.504 390.099C185.17 390.436 184.57 390.388 184.171 389.992C183.773 389.596 183.721 388.997 184.055 388.66Z" fill="#FFFF00" stroke="black" stroke-width="0.5"/>
<path d="M178.288 372.675L179.543 371.415L180.44 372.305L181.354 371.384L180.438 370.474L181.726 369.185L182.639 370.092L183.556 369.168L182.639 368.258L183.924 366.964L185.992 369.021C186.317 369.344 186.268 369.814 185.967 370.117L181.46 374.656C181.157 374.961 180.634 375 180.335 374.705L178.287 372.677L178.288 372.677L178.288 372.675Z" fill="#FFFF00" stroke="black" stroke-width="0.5"/>
<path d="M185.776 370.67L192.697 376.976L188.284 381.387L181.936 374.502L185.776 370.67" fill="#FFFF00"/>
<path d="M185.776 370.67L192.697 376.976L188.284 381.387L181.936 374.502L185.776 370.67" stroke="black" stroke-width="0.5"/>
<path d="M183.488 379.127L187.201 382.544L182.988 386.791L179.527 383.117L183.489 379.126L183.488 379.127L183.488 379.127Z" fill="#FFFF00" stroke="black" stroke-width="0.5"/>
<path d="M194.327 368.211L198.04 371.629L193.827 375.876L190.366 372.201L194.328 368.21L194.328 368.211L194.327 368.211Z" fill="#FFFF00" stroke="black" stroke-width="0.5"/>
<path d="M176.155 381.326L177.383 380.095L178.281 380.986L179.177 380.083L178.259 379.172L179.519 377.911L180.434 378.819L181.332 377.914L180.414 377.002L181.673 375.739L183.741 377.796C184.064 378.117 184.02 378.582 183.726 378.878L179.316 383.319C179.02 383.617 178.503 383.653 178.204 383.358L176.154 381.329L176.155 381.328L176.155 381.326Z" fill="#FFFF00" stroke="black" stroke-width="0.5"/>
<path d="M186.994 370.41L188.222 369.179L189.12 370.071L190.016 369.168L189.098 368.256L190.358 366.995L191.273 367.903L192.171 366.999L191.253 366.087L192.512 364.823L194.58 366.88C194.903 367.201 194.859 367.666 194.565 367.962L190.155 372.404C189.859 372.701 189.342 372.737 189.043 372.442L186.993 370.413L186.994 370.412L186.994 370.41Z" fill="#FFFF00" stroke="black" stroke-width="0.5"/>
<path d="M185.535 375.111C184.863 374.497 185.778 373.561 186.42 374.219L188.001 375.789L187.116 376.68L185.535 375.111" fill="black"/>
<path d="M182.384 382.873C181.757 382.257 182.603 381.38 183.228 382.023L184.45 383.235L183.606 384.085L182.384 382.873" fill="black"/>
<path d="M193.256 371.924C192.629 371.308 193.475 370.432 194.1 371.074L195.321 372.287L194.478 373.137L193.256 371.924" fill="black"/>
<path d="M236.061 255.973C236.256 247.968 241.937 246.073 241.977 246.045C242.018 246.018 248.113 248.086 248.093 256.048L236.061 255.973" fill="#FFFF00"/>
<path d="M231.16 246.201L230.171 255.4L236.175 255.413C236.233 247.802 241.937 246.536 242.075 246.564C242.204 246.557 247.859 248.247 248.01 255.413H254.029L252.942 246.143L231.16 246.198V246.201L231.16 246.201Z" fill="#FFFF00" stroke="black" stroke-width="0.5"/>
<path d="M229.768 255.437H254.339C254.857 255.437 255.28 255.949 255.28 256.574C255.28 257.198 254.857 257.707 254.339 257.707H229.768C229.25 257.707 228.826 257.198 228.826 256.574C228.826 255.949 229.25 255.437 229.768 255.437Z" fill="#FFFF00" stroke="black" stroke-width="0.5"/>
<path d="M238.699 255.393C238.726 250.59 241.98 249.231 241.996 249.233C241.997 249.233 245.393 250.635 245.419 255.393H238.7" fill="#FFFF00"/>
<path d="M238.699 255.393C238.726 250.59 241.98 249.231 241.996 249.233C241.997 249.233 245.393 250.635 245.419 255.393H238.7" stroke="black" stroke-width="0.5"/>
<path d="M230.29 242.373H253.845C254.341 242.373 254.748 242.834 254.748 243.394C254.748 243.956 254.341 244.416 253.845 244.416H230.29C229.793 244.416 229.387 243.958 229.387 243.394C229.387 242.834 229.793 242.373 230.29 242.373Z" fill="#FFFF00" stroke="black" stroke-width="0.5"/>
<path d="M230.783 244.431H253.313C253.787 244.431 254.176 244.89 254.176 245.452C254.176 246.015 253.787 246.474 253.313 246.474H230.783C230.308 246.474 229.919 246.015 229.919 245.452C229.919 244.89 230.308 244.431 230.783 244.431Z" fill="#FFFF00" stroke="black" stroke-width="0.5"/>
<path d="M238.062 229.076L239.84 229.079V230.342H241.138V229.051L242.96 229.057V230.343H244.262V229.051H246.086L246.083 231.968C246.083 232.426 245.715 232.723 245.287 232.723H238.891C238.461 232.723 238.065 232.379 238.064 231.959L238.059 229.077H238.061L238.062 229.076Z" fill="#FFFF00" stroke="black" stroke-width="0.5"/>
<path d="M244.761 232.977L245.162 242.331L238.923 242.308L239.336 232.952L244.761 232.977" fill="#FFFF00"/>
<path d="M244.761 232.977L245.162 242.331L238.923 242.308L239.336 232.952L244.761 232.977" stroke="black" stroke-width="0.5"/>
<path d="M237.148 237.312L237.339 242.354L231.356 242.357L231.525 237.312H237.149H237.148L237.148 237.312Z" fill="#FFFF00" stroke="black" stroke-width="0.5"/>
<path d="M252.531 237.312L252.722 242.354L246.74 242.357L246.908 237.312H252.532H252.531L252.531 237.312Z" fill="#FFFF00" stroke="black" stroke-width="0.5"/>
<path d="M230.42 233.658L232.159 233.662V234.927H233.432V233.633L235.214 233.639V234.928H236.489V233.634L238.273 233.637L238.27 236.554C238.27 237.009 237.909 237.306 237.493 237.306H231.233C230.814 237.306 230.424 236.964 230.422 236.543L230.418 233.66H230.419L230.42 233.658Z" fill="#FFFF00" stroke="black" stroke-width="0.5"/>
<path d="M245.803 233.658L247.542 233.662V234.927H248.815V233.633L250.597 233.639V234.928H251.872V233.634L253.656 233.637L253.653 236.554C253.653 237.009 253.292 237.306 252.876 237.306H246.616C246.197 237.306 245.807 236.964 245.805 236.543L245.801 233.66H245.802L245.803 233.658Z" fill="#FFFF00" stroke="black" stroke-width="0.5"/>
<path d="M241.44 235.935C241.402 235.025 242.711 235.015 242.696 235.935V238.162H241.44V235.935" fill="black"/>
<path d="M233.712 239.168C233.707 238.29 234.925 238.272 234.91 239.168V240.889H233.712V239.168" fill="black"/>
<path d="M249.141 239.168C249.137 238.29 250.355 238.272 250.339 239.168V240.889H249.142V239.168" fill="black"/>
<path d="M313.923 255.973C313.727 247.968 308.047 246.073 308.006 246.045C307.965 246.018 301.871 248.086 301.891 256.048L313.923 255.973" fill="#FFFF00"/>
<path d="M318.824 246.201L319.812 255.4L313.809 255.413C313.751 247.802 308.046 246.536 307.908 246.564C307.779 246.557 302.125 248.247 301.974 255.413H295.955L297.042 246.143L318.823 246.198V246.201L318.824 246.201Z" fill="#FFFF00" stroke="black" stroke-width="0.5"/>
<path d="M320.216 255.437H295.644C295.126 255.437 294.703 255.949 294.703 256.574C294.703 257.198 295.126 257.707 295.644 257.707H320.216C320.734 257.707 321.157 257.198 321.157 256.574C321.157 255.949 320.734 255.437 320.216 255.437Z" fill="#FFFF00" stroke="black" stroke-width="0.5"/>
<path d="M311.284 255.393C311.257 250.59 308.004 249.231 307.987 249.233C307.986 249.233 304.591 250.635 304.564 255.393H311.284" fill="#FFFF00"/>
<path d="M311.284 255.393C311.257 250.59 308.004 249.231 307.987 249.233C307.986 249.233 304.591 250.635 304.564 255.393H311.284" stroke="black" stroke-width="0.5"/>
<path d="M319.694 242.373H296.139C295.643 242.373 295.236 242.834 295.236 243.394C295.236 243.956 295.643 244.416 296.139 244.416H319.694C320.19 244.416 320.597 243.958 320.597 243.394C320.597 242.834 320.19 242.373 319.694 242.373Z" fill="#FFFF00" stroke="black" stroke-width="0.5"/>
<path d="M319.201 244.431H296.671C296.197 244.431 295.808 244.89 295.808 245.452C295.808 246.015 296.197 246.474 296.671 246.474H319.201C319.675 246.474 320.064 246.015 320.064 245.452C320.064 244.89 319.675 244.431 319.201 244.431Z" fill="#FFFF00" stroke="black" stroke-width="0.5"/>
<path d="M311.922 229.076L310.143 229.079V230.342H308.845V229.051L307.023 229.057V230.343H305.721V229.051H303.898L303.901 231.968C303.901 232.426 304.269 232.723 304.696 232.723H311.093C311.522 232.723 311.919 232.379 311.92 231.959L311.924 229.077H311.923L311.922 229.076Z" fill="#FFFF00" stroke="black" stroke-width="0.5"/>
<path d="M305.223 232.977L304.821 242.331L311.061 242.308L310.648 232.952L305.223 232.977" fill="#FFFF00"/>
<path d="M305.223 232.977L304.821 242.331L311.061 242.308L310.648 232.952L305.223 232.977" stroke="black" stroke-width="0.5"/>
<path d="M312.836 237.312L312.645 242.354L318.627 242.357L318.458 237.312H312.834H312.836L312.836 237.312Z" fill="#FFFF00" stroke="black" stroke-width="0.5"/>
<path d="M297.453 237.312L297.262 242.354L303.244 242.357L303.075 237.312H297.451H297.453L297.453 237.312Z" fill="#FFFF00" stroke="black" stroke-width="0.5"/>
<path d="M319.564 233.658L317.824 233.662V234.927H316.552V233.633L314.769 233.639V234.928H313.494V233.634L311.711 233.637L311.714 236.554C311.714 237.009 312.074 237.306 312.491 237.306H318.751C319.17 237.306 319.56 236.964 319.561 236.543L319.566 233.66H319.564L319.564 233.658Z" fill="#FFFF00" stroke="black" stroke-width="0.5"/>
<path d="M304.18 233.658L302.441 233.662V234.927H301.169V233.633L299.386 233.639V234.928H298.111V233.634L296.328 233.637L296.331 236.554C296.331 237.009 296.691 237.306 297.108 237.306H303.368C303.787 237.306 304.177 236.964 304.178 236.543L304.183 233.66H304.181L304.18 233.658Z" fill="#FFFF00" stroke="black" stroke-width="0.5"/>
<path d="M308.544 235.935C308.582 235.025 307.273 235.015 307.288 235.935V238.162H308.544V235.935" fill="black"/>
<path d="M316.272 239.168C316.276 238.29 315.058 238.272 315.074 239.168V240.889H316.271V239.168" fill="black"/>
<path d="M300.843 239.168C300.847 238.29 299.629 238.272 299.644 239.168V240.889H300.842V239.168" fill="black"/>
<path d="M313.923 323.137C313.727 315.132 308.047 313.237 308.006 313.209C307.965 313.182 301.871 315.25 301.891 323.211L313.923 323.137" fill="#FFFF00"/>
<path d="M318.824 313.364L319.812 322.564L313.809 322.577C313.751 314.966 308.046 313.7 307.908 313.728C307.779 313.721 302.125 315.411 301.974 322.577H295.955L297.042 313.307L318.823 313.362V313.365L318.824 313.364Z" fill="#FFFF00" stroke="black" stroke-width="0.5"/>
<path d="M320.216 322.601H295.644C295.126 322.601 294.703 323.112 294.703 323.738C294.703 324.362 295.126 324.871 295.644 324.871H320.216C320.734 324.871 321.157 324.362 321.157 323.738C321.157 323.112 320.734 322.601 320.216 322.601Z" fill="#FFFF00" stroke="black" stroke-width="0.5"/>
<path d="M311.284 322.557C311.257 317.754 308.004 316.395 307.987 316.397C307.986 316.397 304.591 317.799 304.564 322.557H311.284" fill="#FFFF00"/>
<path d="M311.284 322.557C311.257 317.754 308.004 316.395 307.987 316.397C307.986 316.397 304.591 317.799 304.564 322.557H311.284" stroke="black" stroke-width="0.5"/>
<path d="M319.694 309.536H296.139C295.643 309.536 295.236 309.998 295.236 310.558C295.236 311.12 295.643 311.58 296.139 311.58H319.694C320.19 311.58 320.597 311.122 320.597 310.558C320.597 309.998 320.19 309.536 319.694 309.536Z" fill="#FFFF00" stroke="black" stroke-width="0.5"/>
<path d="M319.201 311.595H296.671C296.197 311.595 295.808 312.054 295.808 312.616C295.808 313.178 296.197 313.637 296.671 313.637H319.201C319.675 313.637 320.064 313.178 320.064 312.616C320.064 312.054 319.675 311.595 319.201 311.595Z" fill="#FFFF00" stroke="black" stroke-width="0.5"/>
<path d="M311.922 296.24L310.143 296.243V297.506H308.845V296.215L307.023 296.22V297.507H305.721V296.215H303.898L303.901 299.132C303.901 299.59 304.269 299.887 304.696 299.887H311.093C311.522 299.887 311.919 299.543 311.92 299.123L311.924 296.241H311.923L311.922 296.24Z" fill="#FFFF00" stroke="black" stroke-width="0.5"/>
<path d="M305.223 300.14L304.821 309.495L311.061 309.472L310.648 300.116L305.223 300.14" fill="#FFFF00"/>
<path d="M305.223 300.14L304.821 309.495L311.061 309.472L310.648 300.116L305.223 300.14" stroke="black" stroke-width="0.5"/>
<path d="M312.836 304.476L312.645 309.518L318.627 309.521L318.458 304.476H312.834H312.836L312.836 304.476Z" fill="#FFFF00" stroke="black" stroke-width="0.5"/>
<path d="M297.453 304.476L297.262 309.518L303.244 309.521L303.075 304.476H297.451H297.453L297.453 304.476Z" fill="#FFFF00" stroke="black" stroke-width="0.5"/>
<path d="M319.564 300.822L317.824 300.826V302.091H316.552V300.797L314.769 300.803V302.092H313.494V300.798L311.711 300.8L311.714 303.717C311.714 304.173 312.074 304.469 312.491 304.469H318.751C319.17 304.469 319.56 304.128 319.561 303.707L319.566 300.823H319.564L319.564 300.822Z" fill="#FFFF00" stroke="black" stroke-width="0.5"/>
<path d="M304.18 300.822L302.441 300.826V302.091H301.169V300.797L299.386 300.803V302.092H298.111V300.798L296.328 300.8L296.331 303.717C296.331 304.173 296.691 304.469 297.108 304.469H303.368C303.787 304.469 304.177 304.128 304.178 303.707L304.183 300.823H304.181L304.18 300.822Z" fill="#FFFF00" stroke="black" stroke-width="0.5"/>
<path d="M308.544 303.098C308.582 302.189 307.273 302.179 307.288 303.098V305.326H308.544V303.099" fill="black"/>
<path d="M316.272 306.332C316.276 305.453 315.058 305.435 315.074 306.332V308.053H316.271V306.332" fill="black"/>
<path d="M300.843 306.332C300.847 305.453 299.629 305.435 299.644 306.332V308.053H300.842V306.332" fill="black"/>
<path d="M287.734 393.047C293.277 387.268 290.62 381.902 290.611 381.853C290.601 381.805 284.839 378.937 279.204 384.562L287.734 393.047" fill="#FFFF00"/>
<path d="M298.123 389.639L292.291 396.823L288.051 392.572C293.412 387.168 290.291 382.227 290.174 382.149C290.088 382.053 284.904 379.231 279.712 384.174L275.471 379.902L282.815 374.142L298.124 389.637L298.122 389.639L298.123 389.639Z" fill="#FFFF00" stroke="black" stroke-width="0.5"/>
<path d="M292.549 397.135L275.236 379.699C274.871 379.331 274.21 379.391 273.766 379.832C273.323 380.272 273.26 380.931 273.625 381.298L290.939 398.734C291.303 399.102 291.963 399.043 292.406 398.604C292.849 398.163 292.914 397.502 292.549 397.135Z" fill="#FFFF00" stroke="black" stroke-width="0.5"/>
<path d="M286.287 390.766C289.676 387.362 288.348 384.096 288.335 384.086C288.334 384.085 284.947 382.664 281.552 385.997L286.286 390.766" fill="#FFFF00"/>
<path d="M286.287 390.766C289.676 387.362 288.348 384.096 288.335 384.086C288.334 384.085 284.947 382.664 281.552 385.997L286.286 390.766" stroke="black" stroke-width="0.5"/>
<path d="M301.452 387.559L284.855 370.844C284.505 370.492 283.891 370.529 283.494 370.924C283.095 371.319 283.055 371.932 283.405 372.284L300.002 388.999C300.352 389.351 300.963 389.317 301.363 388.92C301.761 388.525 301.802 387.911 301.452 387.559Z" fill="#FFFF00" stroke="black" stroke-width="0.5"/>
<path d="M299.644 388.66L283.769 372.673C283.434 372.336 282.835 372.384 282.436 372.779C282.037 373.176 281.985 373.775 282.319 374.112L298.194 390.099C298.529 390.436 299.128 390.388 299.528 389.992C299.926 389.596 299.978 388.997 299.644 388.66Z" fill="#FFFF00" stroke="black" stroke-width="0.5"/>
<path d="M305.411 372.675L304.156 371.415L303.259 372.305L302.345 371.384L303.261 370.474L301.973 369.185L301.06 370.092L300.143 369.168L301.059 368.258L299.774 366.964L297.707 369.021C297.382 369.344 297.431 369.814 297.732 370.117L302.239 374.656C302.541 374.961 303.065 375 303.363 374.705L305.412 372.677L305.411 372.677L305.411 372.675Z" fill="#FFFF00" stroke="black" stroke-width="0.5"/>
<path d="M297.923 370.67L291.002 376.976L295.415 381.387L301.762 374.502L297.923 370.67" fill="#FFFF00"/>
<path d="M297.923 370.67L291.002 376.976L295.415 381.387L301.762 374.502L297.923 370.67" stroke="black" stroke-width="0.5"/>
<path d="M300.21 379.127L296.498 382.544L300.711 386.791L304.172 383.117L300.209 379.126L300.21 379.127L300.21 379.127Z" fill="#FFFF00" stroke="black" stroke-width="0.5"/>
<path d="M289.371 368.211L285.659 371.629L289.872 375.876L293.333 372.201L289.37 368.21L289.371 368.211L289.371 368.211Z" fill="#FFFF00" stroke="black" stroke-width="0.5"/>
<path d="M307.544 381.326L306.315 380.095L305.418 380.986L304.521 380.083L305.44 379.172L304.18 377.911L303.265 378.819L302.367 377.914L303.285 377.002L302.026 375.739L299.958 377.796C299.635 378.117 299.679 378.582 299.972 378.878L304.383 383.319C304.678 383.617 305.196 383.653 305.495 383.358L307.544 381.329L307.543 381.328L307.544 381.326Z" fill="#FFFF00" stroke="black" stroke-width="0.5"/>
<path d="M296.705 370.41L295.476 369.179L294.579 370.071L293.682 369.168L294.601 368.256L293.341 366.995L292.426 367.903L291.527 366.999L292.446 366.087L291.187 364.823L289.119 366.88C288.796 367.201 288.84 367.666 289.133 367.962L293.544 372.404C293.839 372.701 294.356 372.737 294.656 372.442L296.705 370.413L296.704 370.412L296.705 370.41Z" fill="#FFFF00" stroke="black" stroke-width="0.5"/>
<path d="M298.164 375.111C298.836 374.497 297.921 373.561 297.279 374.219L295.698 375.789L296.583 376.68L298.163 375.111" fill="black"/>
<path d="M301.315 382.873C301.941 382.257 301.096 381.38 300.47 382.023L299.249 383.235L300.093 384.085L301.314 382.873" fill="black"/>
<path d="M290.443 371.924C291.069 371.308 290.224 370.432 289.599 371.074L288.377 372.287L289.221 373.137L290.442 371.924" fill="black"/>
<path d="M231.322 325.539V325.546C231.322 328.753 232.554 331.676 234.529 333.796C236.509 335.922 239.235 337.243 242.217 337.243C245.215 337.243 247.936 335.931 249.906 333.814C251.876 331.698 253.1 328.779 253.1 325.559V309.945L231.361 309.927L231.322 325.538" fill="#003399"/>
<path d="M236.307 318.021C237.497 318.021 238.462 317.056 238.462 315.866C238.462 314.676 237.497 313.711 236.307 313.711C235.117 313.711 234.153 314.676 234.153 315.866C234.153 317.056 235.117 318.021 236.307 318.021Z" fill="white"/>
<path d="M248.369 318.031C249.559 318.031 250.523 317.066 250.523 315.876C250.523 314.686 249.559 313.721 248.369 313.721C247.179 313.721 246.214 314.686 246.214 315.876C246.214 317.066 247.179 318.031 248.369 318.031Z" fill="white"/>
<path d="M242.326 323.821C243.516 323.821 244.481 322.856 244.481 321.666C244.481 320.476 243.516 319.511 242.326 319.511C241.136 319.511 240.172 320.476 240.172 321.666C240.172 322.856 241.136 323.821 242.326 323.821Z" fill="white"/>
<path d="M236.307 329.883C237.497 329.883 238.462 328.918 238.462 327.728C238.462 326.538 237.497 325.574 236.307 325.574C235.117 325.574 234.153 326.538 234.153 327.728C234.153 328.918 235.117 329.883 236.307 329.883Z" fill="white"/>
<path d="M248.355 329.867C249.545 329.867 250.51 328.902 250.51 327.712C250.51 326.522 249.545 325.558 248.355 325.558C247.165 325.558 246.201 326.522 246.201 327.712C246.201 328.902 247.165 329.867 248.355 329.867Z" fill="white"/>
<path d="M231.322 287.815V287.823C231.322 291.03 232.554 293.952 234.529 296.072C236.509 298.199 239.235 299.52 242.217 299.52C245.215 299.52 247.936 298.208 249.906 296.09C251.876 293.975 253.1 291.055 253.1 287.835V272.222L231.361 272.204L231.322 287.815" fill="#003399"/>
<path d="M236.307 280.297C237.497 280.297 238.462 279.333 238.462 278.142C238.462 276.952 237.497 275.988 236.307 275.988C235.117 275.988 234.153 276.952 234.153 278.142C234.153 279.333 235.117 280.297 236.307 280.297Z" fill="white"/>
<path d="M248.369 280.307C249.559 280.307 250.523 279.343 250.523 278.153C250.523 276.963 249.559 275.998 248.369 275.998C247.179 275.998 246.214 276.963 246.214 278.153C246.214 279.343 247.179 280.307 248.369 280.307Z" fill="white"/>
<path d="M242.326 286.097C243.516 286.097 244.481 285.133 244.481 283.943C244.481 282.753 243.516 281.788 242.326 281.788C241.136 281.788 240.172 282.753 240.172 283.943C240.172 285.133 241.136 286.097 242.326 286.097Z" fill="white"/>
<path d="M236.307 292.16C237.497 292.16 238.462 291.195 238.462 290.005C238.462 288.815 237.497 287.85 236.307 287.85C235.117 287.85 234.153 288.815 234.153 290.005C234.153 291.195 235.117 292.16 236.307 292.16Z" fill="white"/>
<path d="M248.355 292.144C249.545 292.144 250.51 291.179 250.51 289.989C250.51 288.799 249.545 287.834 248.355 287.834C247.165 287.834 246.201 288.799 246.201 289.989C246.201 291.179 247.165 292.144 248.355 292.144Z" fill="white"/>
<path d="M201.164 325.539V325.546C201.164 328.753 202.395 331.676 204.371 333.796C206.35 335.922 209.077 337.243 212.059 337.243C215.056 337.243 217.777 335.931 219.748 333.814C221.717 331.698 222.941 328.779 222.941 325.559V309.945L201.203 309.927L201.163 325.538" fill="#003399"/>
<path d="M206.149 318.021C207.339 318.021 208.304 317.056 208.304 315.866C208.304 314.676 207.339 313.711 206.149 313.711C204.959 313.711 203.994 314.676 203.994 315.866C203.994 317.056 204.959 318.021 206.149 318.021Z" fill="white"/>
<path d="M218.21 318.031C219.4 318.031 220.365 317.066 220.365 315.876C220.365 314.686 219.4 313.721 218.21 313.721C217.02 313.721 216.055 314.686 216.055 315.876C216.055 317.066 217.02 318.031 218.21 318.031Z" fill="white"/>
<path d="M212.168 323.821C213.358 323.821 214.323 322.856 214.323 321.666C214.323 320.476 213.358 319.511 212.168 319.511C210.978 319.511 210.013 320.476 210.013 321.666C210.013 322.856 210.978 323.821 212.168 323.821Z" fill="white"/>
<path d="M206.149 329.883C207.339 329.883 208.304 328.918 208.304 327.728C208.304 326.538 207.339 325.574 206.149 325.574C204.959 325.574 203.994 326.538 203.994 327.728C203.994 328.918 204.959 329.883 206.149 329.883Z" fill="white"/>
<path d="M218.197 329.867C219.387 329.867 220.352 328.902 220.352 327.712C220.352 326.522 219.387 325.558 218.197 325.558C217.007 325.558 216.042 326.522 216.042 327.712C216.042 328.902 217.007 329.867 218.197 329.867Z" fill="white"/>
<path d="M261.403 325.539V325.546C261.403 328.753 262.634 331.676 264.61 333.796C266.589 335.922 269.316 337.243 272.298 337.243C275.295 337.243 278.016 335.931 279.987 333.814C281.956 331.698 283.18 328.779 283.18 325.559V309.945L261.441 309.927L261.402 325.538" fill="#003399"/>
<path d="M266.388 318.021C267.578 318.021 268.542 317.056 268.542 315.866C268.542 314.676 267.578 313.711 266.388 313.711C265.198 313.711 264.233 314.676 264.233 315.866C264.233 317.056 265.198 318.021 266.388 318.021Z" fill="white"/>
<path d="M278.449 318.031C279.639 318.031 280.604 317.066 280.604 315.876C280.604 314.686 279.639 313.721 278.449 313.721C277.259 313.721 276.294 314.686 276.294 315.876C276.294 317.066 277.259 318.031 278.449 318.031Z" fill="white"/>
<path d="M272.407 323.821C273.597 323.821 274.561 322.856 274.561 321.666C274.561 320.476 273.597 319.511 272.407 319.511C271.217 319.511 270.252 320.476 270.252 321.666C270.252 322.856 271.217 323.821 272.407 323.821Z" fill="white"/>
<path d="M266.388 329.883C267.578 329.883 268.542 328.918 268.542 327.728C268.542 326.538 267.578 325.574 266.388 325.574C265.198 325.574 264.233 326.538 264.233 327.728C264.233 328.918 265.198 329.883 266.388 329.883Z" fill="white"/>
<path d="M278.436 329.867C279.626 329.867 280.59 328.902 280.59 327.712C280.59 326.522 279.626 325.558 278.436 325.558C277.246 325.558 276.281 326.522 276.281 327.712C276.281 328.902 277.246 329.867 278.436 329.867Z" fill="white"/>
<path d="M231.322 362.926V362.933C231.322 366.14 232.554 369.062 234.529 371.182C236.509 373.309 239.235 374.63 242.217 374.63C245.215 374.63 247.936 373.318 249.906 371.2C251.876 369.085 253.1 366.166 253.1 362.945V347.332L231.361 347.314L231.322 362.925" fill="#003399"/>
<path d="M236.307 355.407C237.497 355.407 238.462 354.443 238.462 353.253C238.462 352.063 237.497 351.098 236.307 351.098C235.117 351.098 234.153 352.063 234.153 353.253C234.153 354.443 235.117 355.407 236.307 355.407Z" fill="white"/>
<path d="M248.369 355.418C249.559 355.418 250.523 354.453 250.523 353.263C250.523 352.073 249.559 351.108 248.369 351.108C247.179 351.108 246.214 352.073 246.214 353.263C246.214 354.453 247.179 355.418 248.369 355.418Z" fill="white"/>
<path d="M242.326 361.207C243.516 361.207 244.481 360.243 244.481 359.053C244.481 357.863 243.516 356.898 242.326 356.898C241.136 356.898 240.172 357.863 240.172 359.053C240.172 360.243 241.136 361.207 242.326 361.207Z" fill="white"/>
<path d="M236.307 367.27C237.497 367.27 238.462 366.305 238.462 365.115C238.462 363.925 237.497 362.96 236.307 362.96C235.117 362.96 234.153 363.925 234.153 365.115C234.153 366.305 235.117 367.27 236.307 367.27Z" fill="white"/>
<path d="M248.355 367.254C249.545 367.254 250.51 366.289 250.51 365.099C250.51 363.909 249.545 362.944 248.355 362.944C247.165 362.944 246.201 363.909 246.201 365.099C246.201 366.289 247.165 367.254 248.355 367.254Z" fill="white"/>
</g>
</svg>
